<?xml version="1.0" encoding="UTF-8" standalone="no"?>
<svg 
  version="1.1" 
  xmlns="http://www.w3.org/2000/svg" 
  xmlns:xlink="http://www.w3.org/1999/xlink" 
  xmlns:svg="http://www.w3.org/2000/svg"
  xmlns:rdf="http://www.w3.org/1999/02/22-rdf-syntax-ns#"
  xmlns:cc="http://creativecommons.org/ns#"
  xmlns:dc="http://purl.org/dc/elements/1.1/"
  viewBox="0 0 768 768"
  width="768"
  height="768"
>
<style>svg {background-color: white; }</style>"
<metadata id="metadata1">
Created by https://svgstud.io and licensed under CC-BY-SA 4.0 license. Please attribute https://svgstud.io
</metadata>
<metadata id="prompt">
I need a cool dark and vibey mean chicken simmilar to the next .js logo, vector illustration, monochrome
</metadata>
<metadata id="version">
7
</metadata>
<metadata id="metadata2">
<rdf:RDF>
<cc:Work
    rdf:about="">
    <cc:license
    rdf:resource="http://creativecommons.org/licenses/by-sa/4.0/" />
    <dc:creator>
        <cc:Agent>
            <dc:title>https://svgstud.io</dc:title>
        </cc:Agent>
    </dc:creator>
</cc:Work>
<cc:License
    rdf:about="http://creativecommons.org/licenses/by-sa/4.0/">
    <cc:permits
    rdf:resource="http://creativecommons.org/ns#Reproduction" />
    <cc:permits
    rdf:resource="http://creativecommons.org/ns#Distribution" />
    <cc:requires
    rdf:resource="http://creativecommons.org/ns#Notice" />
    <cc:requires
    rdf:resource="http://creativecommons.org/ns#Attribution" />
    <cc:permits
    rdf:resource="http://creativecommons.org/ns#DerivativeWorks" />
    <cc:requires
    rdf:resource="http://creativecommons.org/ns#ShareAlike" />
</cc:License>
</rdf:RDF>
</metadata>
<metadata id="uid">
ca2a3511cb834e5be1b53bc20c6d522d4e37f7d6cbffb33070bf7e83ecbd9527
</metadata>
<path stroke="none" fill="black" fill-rule="evenodd" d="M381.22,767.97C84.50,767.93 84.50,767.93 77.50,765.16C73.65,763.64 67.35,760.66 63.50,758.54C59.65,756.43 53.12,752.20 49.00,749.16C44.88,746.11 37.90,739.94 33.50,735.44C29.10,730.94 22.95,723.71 19.84,719.38C16.73,715.05 12.15,707.45 9.68,702.50C7.20,697.55 4.12,690.58 2.84,687.00C0.50,680.50 0.50,680.50 0.24,384.00C-0.02,87.50 -0.02,87.50 3.07,78.00C4.77,72.78 7.91,64.90 10.04,60.50C12.17,56.10 16.15,49.12 18.88,44.98C21.62,40.85 27.03,33.79 30.92,29.30C34.81,24.81 40.96,18.61 44.60,15.53C48.23,12.45 54.51,7.69 58.56,4.96C65.91,0.00 65.91,0.00 382.23,0.00C698.55,-0.00 698.55,-0.00 706.26,4.39C710.50,6.81 717.10,11.11 720.92,13.94C724.74,16.77 731.47,22.90 735.87,27.54C740.27,32.19 746.38,39.76 749.44,44.36C752.50,48.97 756.56,56.10 758.46,60.22C760.37,64.33 763.18,71.70 764.71,76.60C767.50,85.50 767.50,85.50 767.76,380.97C768.02,676.44 768.02,676.44 765.88,682.97C764.70,686.56 762.03,693.10 759.94,697.50C757.84,701.90 753.96,708.76 751.32,712.75C748.67,716.74 743.58,723.28 740.00,727.29C736.42,731.29 730.70,737.03 727.29,740.03C723.87,743.04 717.21,748.05 712.49,751.17C707.77,754.28 700.22,758.63 695.70,760.82C691.19,763.01 685.35,765.52 682.72,766.40C678.37,767.85 650.66,768.00 381.22,767.97zM202.19,735.83C206.42,735.92 210.14,735.58 210.46,735.07C210.77,734.56 210.24,733.90 209.26,733.60C208.29,733.30 204.35,732.34 200.50,731.48C195.66,730.40 187.36,729.85 173.63,729.71C153.85,729.50 153.79,729.51 159.15,731.14C162.12,732.04 169.48,733.28 175.52,733.90C181.56,734.52 188.30,735.17 190.50,735.34C192.70,735.52 197.96,735.74 202.19,735.83zM191.01,725.89C191.84,725.95 194.09,725.53 196.01,724.96C197.93,724.39 206.93,723.50 216.00,722.97C225.37,722.42 308.50,722.00 408.40,721.98C554.77,721.96 586.00,721.72 594.41,720.54C599.97,719.76 606.76,718.63 609.51,718.03C612.25,717.44 618.77,715.76 624.00,714.31C629.23,712.86 635.30,710.57 637.50,709.22C639.70,707.87 642.96,705.38 644.75,703.69C646.54,701.99 648.00,700.03 648.00,699.32C648.00,698.37 646.60,698.60 642.75,700.16C639.86,701.33 631.94,704.26 625.14,706.66C618.35,709.06 606.65,712.18 599.14,713.59C586.38,715.98 582.55,716.20 540.00,716.99C514.98,717.46 472.45,717.89 445.50,717.94C418.55,717.98 346.77,717.61 286.00,717.11C195.49,716.36 174.14,715.93 168.00,714.72C163.88,713.91 157.12,712.30 153.00,711.13C148.88,709.97 143.03,708.07 140.00,706.92C136.97,705.77 130.52,702.85 125.66,700.43C120.79,698.02 113.82,693.93 110.16,691.35C106.50,688.76 100.12,683.24 96.00,679.07C91.87,674.91 85.29,667.00 81.37,661.50C77.45,656.00 73.29,650.64 72.12,649.60C70.03,647.71 70.00,647.72 70.00,649.87C70.00,651.06 71.28,654.85 72.84,658.27C74.40,661.70 77.39,667.20 79.49,670.50C81.59,673.80 87.41,680.60 92.41,685.62C97.41,690.63 104.01,696.33 107.07,698.28C110.13,700.23 117.56,704.32 123.57,707.36C129.58,710.41 138.93,714.32 144.34,716.06C149.75,717.79 162.12,720.69 171.84,722.50C181.55,724.30 190.18,725.83 191.01,725.89zM622.70,724.00C623.22,724.00 626.77,722.94 630.58,721.64C634.40,720.34 641.07,717.64 645.41,715.64C649.75,713.63 657.84,708.96 663.39,705.25C669.26,701.33 677.47,694.52 682.99,689.00C688.22,683.77 694.81,676.12 697.63,672.00C700.45,667.88 704.42,661.24 706.44,657.26C708.47,653.28 711.67,645.43 713.56,639.82C715.45,634.21 717.64,626.22 718.43,622.06C719.21,617.90 719.92,611.35 720.00,607.50C720.09,603.65 720.11,599.15 720.06,597.50C720.00,595.40 719.71,594.91 719.10,595.87C718.57,596.71 717.95,592.54 717.50,584.96C716.96,576.00 716.49,573.16 715.77,574.45C715.22,575.43 714.41,584.61 713.96,594.86C713.32,609.43 712.60,615.70 710.63,623.58C709.24,629.13 706.70,637.22 704.97,641.57C703.24,645.92 700.21,652.41 698.24,655.99C696.26,659.57 692.73,665.20 690.40,668.50C688.07,671.80 683.07,677.68 679.29,681.58C675.50,685.47 669.05,691.32 664.95,694.58C660.84,697.83 649.96,705.17 640.77,710.87C631.57,716.57 623.53,721.86 622.90,722.62C622.27,723.38 622.18,724.00 622.70,724.00zM471.05,705.98C474.05,705.97 479.65,705.29 483.50,704.47C487.35,703.65 492.43,702.73 494.80,702.44C497.16,702.15 500.20,701.50 501.55,700.98C502.90,700.47 504.00,699.76 504.00,699.40C504.00,699.04 502.65,699.02 501.00,699.35C499.31,699.69 498.00,699.53 498.00,698.98C498.00,698.44 498.56,697.97 499.25,697.94C499.94,697.90 499.59,697.50 498.47,697.05C497.36,696.60 494.21,696.59 491.47,697.02C488.74,697.46 482.23,699.27 477.00,701.05C471.77,702.82 467.07,704.66 466.55,705.14C466.01,705.63 467.93,705.99 471.05,705.98zM425.75,702.71C430.01,702.34 437.29,700.42 445.50,697.49C452.65,694.95 461.30,692.21 464.72,691.42C468.14,690.62 478.29,689.32 487.27,688.53C496.26,687.74 504.77,686.66 506.18,686.12C507.60,685.58 517.69,682.82 528.60,679.97C539.52,677.13 550.22,674.10 552.38,673.23C556.22,671.70 556.25,671.64 553.90,670.69C551.55,669.75 551.58,669.70 555.00,668.80C556.92,668.29 561.74,667.17 565.69,666.31C571.79,664.98 572.68,664.54 571.52,663.37C570.51,662.37 567.10,662.00 558.82,662.02C551.97,662.02 548.05,662.38 548.88,662.90C549.83,663.50 548.73,664.00 545.38,664.47C542.70,664.85 531.50,665.51 520.50,665.93C509.50,666.35 499.32,667.03 497.89,667.44C496.21,667.92 492.56,667.42 487.69,666.05C483.52,664.88 476.37,663.24 471.80,662.40C467.24,661.56 456.52,660.47 448.00,659.98C439.48,659.49 428.90,658.61 424.50,658.02C420.10,657.42 412.45,656.08 407.50,655.03C402.55,653.97 391.80,652.41 383.62,651.56C375.44,650.70 367.00,650.00 364.87,650.00C362.74,650.00 361.00,650.39 361.00,650.88C361.00,651.36 361.58,652.23 362.28,652.82C362.98,653.40 371.48,655.04 381.16,656.46C390.85,657.89 401.41,659.73 404.63,660.57C407.86,661.40 412.30,662.95 414.50,664.01C416.70,665.07 421.13,668.60 424.35,671.85C429.55,677.10 430.07,678.00 429.06,679.88C428.11,681.66 427.00,682.00 422.21,682.02C419.07,682.03 412.55,682.87 407.72,683.88C402.89,684.90 398.67,686.00 398.34,686.33C398.01,686.66 398.49,688.52 399.42,690.46C400.34,692.41 401.31,694.00 401.58,694.00C401.85,694.00 403.65,693.34 405.59,692.53C407.52,691.72 412.74,690.37 417.18,689.53C421.62,688.68 430.48,687.71 436.87,687.37C445.66,686.90 448.24,687.03 447.42,687.90C446.83,688.54 441.70,691.07 436.03,693.53C430.36,696.00 424.21,698.94 422.36,700.09C420.51,701.23 419.00,702.42 419.00,702.73C419.00,703.04 422.04,703.03 425.75,702.71zM392.83,699.85C393.01,699.40 391.98,696.45 390.54,693.30C389.10,690.15 386.07,685.19 383.82,682.27C381.57,679.35 375.85,674.12 371.11,670.66C366.38,667.20 361.15,663.64 359.50,662.76C357.85,661.88 355.72,660.91 354.77,660.62C353.78,660.31 353.27,659.47 353.57,658.67C353.87,657.89 353.45,657.00 352.64,656.69C351.75,656.35 351.36,655.34 351.66,654.20C351.99,652.93 351.30,651.59 349.64,650.29C347.37,648.50 347.27,648.15 348.66,646.77C350.05,645.38 349.85,645.11 346.62,644.04C344.65,643.39 342.12,643.14 341.02,643.50C339.91,643.85 339.00,644.50 339.00,644.94C339.00,645.39 339.66,646.30 340.46,646.97C341.70,648.00 341.72,648.51 340.58,650.34C339.84,651.53 338.94,653.80 338.57,655.39C337.91,658.20 337.97,658.26 341.17,657.62C342.99,657.25 344.01,657.34 343.47,657.81C342.94,658.28 340.61,659.20 338.29,659.86C335.97,660.52 332.38,662.71 330.29,664.74C326.75,668.19 326.64,668.45 328.70,668.78C329.91,668.97 331.71,668.69 332.71,668.15C333.99,667.47 335.10,667.60 336.46,668.59C337.52,669.37 337.98,670.00 337.49,670.00C337.00,670.00 337.10,670.50 337.71,671.11C338.52,671.92 339.76,671.91 342.32,671.06C344.25,670.42 346.08,669.23 346.39,668.41C346.71,667.59 346.30,666.67 345.48,666.36C344.67,666.04 344.00,665.37 344.00,664.86C344.00,664.35 345.01,664.48 346.25,665.16C347.49,665.83 349.83,666.26 351.45,666.10C353.87,665.86 354.20,666.06 353.26,667.19C352.63,667.95 352.45,669.10 352.85,669.76C353.26,670.41 354.57,671.10 355.77,671.28C356.97,671.47 358.26,671.93 358.64,672.31C359.02,672.69 360.16,673.00 361.17,673.00C362.48,673.00 363.00,673.75 363.00,675.63C363.00,678.06 363.26,678.22 366.34,677.72C369.45,677.21 369.66,677.35 369.22,679.61C368.80,681.83 369.05,682.02 372.13,681.77C375.07,681.53 375.49,681.79 375.42,683.78C375.37,685.09 376.64,687.30 378.42,689.01C380.11,690.64 383.98,693.93 387.00,696.32C390.02,698.72 392.65,700.30 392.83,699.85zM324.76,698.13C325.89,697.52 327.72,695.56 328.81,693.76C329.91,691.97 331.29,688.70 331.89,686.50C332.54,684.07 334.24,681.44 336.23,679.80C338.98,677.53 339.32,676.82 338.36,675.30C337.65,674.18 336.19,673.58 334.52,673.70C333.04,673.81 331.15,674.46 330.33,675.14C329.51,675.82 327.77,678.49 326.46,681.08C325.09,683.79 323.79,688.62 323.39,692.50C322.72,699.08 322.75,699.21 324.76,698.13zM578.22,699.00C578.48,699.00 581.16,698.15 584.18,697.11C587.20,696.07 590.64,694.62 591.82,693.88C593.00,693.15 594.16,692.02 594.41,691.38C594.70,690.63 591.43,689.41 585.18,687.95C579.85,686.70 572.80,685.69 569.50,685.70C565.79,685.72 561.34,686.56 557.84,687.90C554.73,689.10 551.72,690.63 551.15,691.32C550.34,692.30 552.80,692.54 562.81,692.45C569.79,692.39 577.52,691.98 580.00,691.53C584.50,690.72 584.50,690.72 582.45,693.11C581.33,694.42 579.81,696.29 579.08,697.25C578.35,698.21 577.96,699.00 578.22,699.00zM254.45,696.98C257.78,696.97 264.70,696.52 269.84,695.98C274.97,695.44 282.72,694.09 287.06,692.99C291.40,691.88 296.18,690.50 297.69,689.93C299.60,689.20 300.05,688.65 299.17,688.10C298.47,687.67 297.86,686.46 297.81,685.41C297.75,684.36 298.04,681.87 298.44,679.88C299.17,676.26 299.17,676.26 284.34,675.56C274.80,675.11 267.00,675.26 262.50,675.97C258.65,676.59 249.75,678.44 242.71,680.08C235.68,681.73 226.23,684.66 221.71,686.59C217.20,688.52 212.43,690.55 211.12,691.09C209.81,691.63 208.99,692.32 209.29,692.63C209.60,692.93 218.02,693.54 228.01,693.97C238.99,694.45 246.61,695.21 247.28,695.88C247.90,696.50 251.12,696.99 254.45,696.98zM347.66,697.00C349.12,697.00 351.82,695.85 353.66,694.45C355.84,692.78 357.00,691.05 357.00,689.45C357.00,688.10 356.11,686.11 355.02,685.02C353.54,683.54 352.48,683.26 350.77,683.88C349.45,684.37 348.36,685.72 348.17,687.11C347.99,688.42 346.87,690.29 345.67,691.26C343.54,692.99 343.58,693.01 348.00,692.52C352.50,692.02 352.50,692.02 348.75,693.65C346.69,694.54 345.00,695.66 345.00,696.14C345.00,696.61 346.20,697.00 347.66,697.00zM261.11,691.98C255.13,693.24 253.32,693.34 253.68,692.40C253.94,691.71 255.92,690.89 258.08,690.57C260.24,690.26 263.91,689.72 266.25,689.39C268.59,689.05 270.17,689.12 269.76,689.54C269.36,689.96 265.47,691.06 261.11,691.98zM190.50,687.56C195.45,687.21 204.22,686.44 210.00,685.86C216.29,685.23 222.11,684.04 224.50,682.90C228.50,680.99 228.50,680.99 213.00,681.44C200.95,681.79 195.94,682.37 190.50,684.04C186.65,685.22 183.05,686.64 182.50,687.20C181.83,687.87 184.45,687.99 190.50,687.56zM305.30,679.00C306.02,679.00 308.83,677.59 311.55,675.86C314.27,674.14 317.85,672.62 319.50,672.49C321.29,672.35 322.63,671.63 322.81,670.70C322.98,669.84 322.26,668.67 321.20,668.11C319.88,667.40 318.08,667.42 315.42,668.15C313.29,668.74 309.85,670.92 307.77,672.99C305.70,675.07 304.00,677.27 304.00,677.88C304.00,678.50 304.59,679.00 305.30,679.00zM415.97,675.89C418.45,676.00 418.45,676.00 416.27,674.48C415.08,673.64 410.86,671.64 406.89,670.02C402.93,668.41 398.41,666.81 396.84,666.47C395.28,666.12 392.48,666.34 390.62,666.96C388.76,667.57 386.50,668.89 385.60,669.89C384.13,671.51 384.12,671.85 385.46,672.97C386.69,673.99 387.73,673.92 390.92,672.65C394.51,671.21 395.37,671.21 400.68,672.66C403.88,673.54 408.07,674.59 410.00,675.01C411.93,675.43 414.61,675.82 415.97,675.89zM116.28,671.66C120.83,671.31 127.92,670.11 132.03,668.99C136.14,667.88 145.12,665.55 152.00,663.83C158.88,662.11 164.90,660.35 165.38,659.92C165.87,659.49 163.68,658.38 160.52,657.46C156.21,656.21 151.97,655.88 143.64,656.16C133.65,656.50 131.81,656.86 125.82,659.68C122.15,661.41 116.63,664.72 113.57,667.03C110.51,669.35 108.00,671.48 108.00,671.77C108.00,672.06 111.73,672.01 116.28,671.66zM247.25,667.73C253.44,667.42 259.69,666.71 261.15,666.15C262.61,665.59 269.88,664.20 277.32,663.06C284.76,661.93 293.81,661.00 297.42,661.00C301.04,661.00 304.00,660.65 304.00,660.22C304.00,659.79 302.54,658.87 300.75,658.18C297.87,657.07 297.70,656.81 299.29,655.89C300.27,655.32 307.70,654.46 315.79,653.98C329.21,653.19 330.65,652.92 332.29,650.89C333.28,649.67 333.95,647.96 333.78,647.09C333.55,645.87 331.60,645.32 325.49,644.74C321.10,644.32 307.60,643.09 295.50,642.01C281.84,640.79 269.71,639.12 263.50,637.60C258.00,636.26 249.82,634.85 245.31,634.48C240.81,634.11 236.66,634.09 236.08,634.45C235.42,634.86 236.01,636.57 237.65,639.04C239.50,641.85 241.31,643.26 243.88,643.91C245.87,644.42 248.96,645.13 250.75,645.50C252.54,645.86 254.00,646.57 254.00,647.08C254.00,647.59 253.21,648.00 252.25,648.01C251.29,648.01 248.78,648.49 246.69,649.07C243.65,649.91 242.94,650.55 243.19,652.21C243.43,653.80 244.75,654.60 248.86,655.65C251.80,656.40 254.65,657.29 255.19,657.62C255.73,657.95 255.80,658.57 255.34,658.99C254.88,659.41 252.03,660.55 249.00,661.51C245.97,662.48 241.81,664.12 239.75,665.16C237.69,666.19 236.00,667.32 236.00,667.67C236.00,668.01 241.06,668.04 247.25,667.73zM206.55,660.00C209.60,660.00 213.43,659.31 215.05,658.47C216.67,657.64 218.00,656.47 218.00,655.89C218.00,655.24 216.77,655.09 214.75,655.49C212.96,655.85 209.14,656.79 206.25,657.60C203.36,658.40 201.00,659.27 201.00,659.53C201.00,659.79 203.50,660.00 206.55,660.00zM493.06,660.00C494.21,660.00 495.00,659.31 495.00,658.32C495.00,657.39 494.07,654.72 492.94,652.38C491.72,649.85 487.84,645.46 483.39,641.56C479.26,637.95 475.09,635.00 474.11,635.00C473.12,635.00 471.82,633.90 471.20,632.55C470.47,630.94 468.75,629.74 466.16,629.04C464.00,628.46 461.70,627.34 461.05,626.56C460.40,625.77 458.57,624.84 456.98,624.50C454.87,624.03 453.22,624.48 450.80,626.16C448.99,627.43 446.50,629.32 445.29,630.37C444.07,631.42 442.09,632.78 440.88,633.39C439.68,634.00 437.79,635.72 436.69,637.20C435.47,638.84 434.64,641.58 434.59,644.17C434.52,647.48 434.89,648.52 436.25,648.79C437.42,649.03 438.35,648.21 439.07,646.33C439.66,644.78 441.20,642.11 442.51,640.40C443.81,638.69 446.26,636.72 447.94,636.03C449.62,635.33 451.00,634.15 451.00,633.41C451.00,632.67 451.60,632.29 452.34,632.58C453.08,632.86 454.26,632.40 454.96,631.55C455.67,630.70 456.69,630.00 457.24,630.00C457.82,630.00 457.75,630.60 457.06,631.43C456.11,632.57 456.26,633.07 457.80,633.90C458.87,634.46 460.02,634.65 460.37,634.30C460.72,633.95 461.00,634.36 461.00,635.22C461.00,636.07 461.95,637.01 463.11,637.32C464.27,637.62 466.30,637.46 467.62,636.95C469.82,636.12 469.98,636.25 469.43,638.44C468.97,640.25 469.36,641.12 471.01,642.01C472.22,642.65 474.08,642.95 475.16,642.67C476.58,642.30 477.37,642.85 478.07,644.68C478.59,646.06 479.88,647.42 480.93,647.69C481.99,647.97 484.71,650.85 486.99,654.10C489.61,657.84 491.84,660.00 493.06,660.00zM650.19,658.88C652.22,658.95 654.16,658.55 654.50,658.00C654.84,657.45 654.60,657.00 653.98,657.00C653.35,657.00 649.83,655.70 646.17,654.12C642.50,652.53 637.48,650.94 635.00,650.59C632.52,650.23 629.83,649.50 629.00,648.96C627.75,648.13 628.03,647.48 630.77,644.98C632.56,643.34 635.13,642.00 636.48,642.00C637.90,642.00 639.38,642.83 639.99,643.98C640.57,645.07 640.76,647.09 640.42,648.48C639.83,650.80 640.05,651.00 643.14,650.97C644.99,650.95 647.33,650.31 648.34,649.54C649.76,648.47 650.03,647.42 649.52,645.07C648.96,642.54 649.16,641.97 650.67,641.85C651.68,641.77 653.66,641.79 655.09,641.89C656.51,642.00 658.72,641.24 660.00,640.20C661.54,638.95 662.11,637.73 661.68,636.60C661.32,635.67 658.96,633.98 656.44,632.87C653.91,631.75 649.52,630.60 646.67,630.31C643.83,630.02 639.63,630.29 637.34,630.90C635.05,631.52 631.00,633.53 628.34,635.35C625.68,637.18 622.28,640.44 620.78,642.59C619.29,644.74 617.77,647.98 617.41,649.80C617.05,651.61 617.02,653.35 617.33,653.66C617.64,653.98 619.32,653.74 621.06,653.13C623.72,652.20 624.60,652.33 626.63,653.93C627.97,654.98 632.27,656.35 636.28,657.00C640.25,657.65 644.17,658.31 645.00,658.47C645.83,658.64 648.16,658.82 650.19,658.88zM188.17,657.00C189.14,657.00 192.00,656.30 194.54,655.44C197.07,654.58 201.47,653.60 204.32,653.26C207.17,652.92 211.46,652.63 213.85,652.60C216.60,652.58 218.63,653.11 219.35,654.07C219.98,654.89 221.40,655.42 222.50,655.23C223.60,655.04 225.18,654.65 226.00,654.37C227.26,653.94 227.20,653.64 225.66,652.50C224.65,651.76 223.46,649.54 223.02,647.58C222.56,645.54 222.60,644.00 223.11,644.00C223.60,644.00 224.00,643.17 224.00,642.17C224.00,641.16 224.28,640.05 224.63,639.70C224.98,639.35 226.01,640.07 226.92,641.28C227.83,642.50 229.11,644.74 229.77,646.25C230.42,647.76 231.42,649.00 231.98,649.00C232.54,649.00 233.00,647.08 233.00,644.73C233.00,641.84 232.20,639.29 230.54,636.84C229.17,634.83 226.08,632.25 223.58,631.04C221.11,629.84 216.71,628.62 213.79,628.32C210.88,628.02 206.60,628.29 204.27,628.92C201.49,629.67 197.96,631.99 193.96,635.70C190.61,638.80 187.00,643.04 185.93,645.13C184.87,647.21 184.00,650.20 184.00,651.76C184.00,653.32 184.54,655.14 185.20,655.80C185.86,656.46 187.19,657.00 188.17,657.00zM690.40,654.66C691.67,653.10 693.22,650.19 693.83,648.21C694.44,646.23 694.75,644.41 694.52,644.19C694.29,643.96 692.73,645.93 691.05,648.58C689.37,651.23 688.02,654.32 688.04,655.45C688.07,657.30 688.30,657.22 690.40,654.66zM531.83,651.50C532.02,651.31 531.87,650.17 531.49,648.96C531.11,647.76 529.23,645.05 527.32,642.93C524.84,640.18 521.51,638.16 515.67,635.85C508.82,633.13 506.31,632.64 500.10,632.76C496.02,632.84 492.33,633.27 491.89,633.71C491.45,634.15 491.44,635.10 491.88,635.81C492.32,636.52 494.92,637.22 497.65,637.37C500.38,637.52 503.04,637.90 503.56,638.21C504.08,638.52 506.38,638.80 508.68,638.83C510.97,638.85 514.12,639.56 515.68,640.41C517.23,641.25 521.42,644.17 524.99,646.90C528.56,649.62 531.64,651.70 531.83,651.50zM108.25,647.02C112.79,644.90 119.32,642.44 122.78,641.55C126.23,640.66 133.88,639.61 139.78,639.22C146.32,638.78 150.32,638.11 150.04,637.50C149.79,636.95 148.14,636.00 146.38,635.40C144.62,634.79 140.77,634.02 137.84,633.68C134.64,633.31 129.84,633.62 125.87,634.45C122.22,635.22 117.05,636.96 114.37,638.32C111.69,639.68 107.36,642.68 104.75,644.98C102.14,647.28 100.00,649.55 100.00,650.02C100.00,650.49 103.71,649.14 108.25,647.02zM546.25,643.97C546.66,643.99 547.00,643.50 547.00,642.88C547.00,642.27 545.30,640.07 543.23,637.99C540.53,635.29 537.52,633.62 532.62,632.11C528.86,630.95 525.05,630.01 524.14,630.02C523.24,630.02 521.89,630.42 521.15,630.89C520.21,631.48 521.60,632.27 525.65,633.46C528.87,634.40 532.85,635.76 534.50,636.48C536.15,637.21 539.30,639.18 541.50,640.87C543.70,642.56 545.84,643.96 546.25,643.97zM343.42,641.88C343.93,641.95 345.17,641.26 346.17,640.35C347.18,639.43 348.00,638.10 348.00,637.38C348.00,636.66 347.21,635.67 346.25,635.17C345.29,634.68 342.85,634.49 340.84,634.74C337.29,635.18 337.21,635.29 338.16,638.04C338.71,639.60 339.91,641.08 340.83,641.33C341.75,641.57 342.91,641.82 343.42,641.88zM419.62,640.00C419.96,640.00 421.77,638.65 423.65,637.00C425.63,635.26 428.21,633.99 429.78,633.98C431.28,633.98 433.14,633.56 433.93,633.06C434.99,632.39 434.43,631.98 431.77,631.48C429.79,631.11 427.12,631.12 425.84,631.51C424.55,631.89 422.49,632.85 421.25,633.63C419.90,634.48 419.00,636.04 419.00,637.52C419.00,638.89 419.28,640.00 419.62,640.00zM610.25,638.89C612.89,638.95 615.00,638.55 615.00,637.98C615.00,637.42 612.22,635.16 608.83,632.97C605.44,630.78 600.26,627.81 597.34,626.38C593.98,624.73 589.60,623.58 585.48,623.25C581.89,622.96 578.73,622.37 578.46,621.94C578.20,621.51 581.25,620.42 585.24,619.50C590.54,618.29 594.50,618.02 599.91,618.52C603.98,618.89 608.93,619.79 610.91,620.50C612.88,621.22 617.09,622.97 620.25,624.39C623.41,625.81 626.00,626.49 626.00,625.90C626.00,625.31 623.54,622.43 620.54,619.49C617.24,616.28 611.89,612.57 607.05,610.14C602.63,607.93 596.98,605.82 594.50,605.45C592.01,605.07 589.75,604.41 589.48,603.97C589.21,603.53 590.90,602.48 593.24,601.64C595.58,600.79 601.33,598.99 606.00,597.63C610.67,596.27 616.25,594.86 618.38,594.51C620.81,594.10 621.91,593.51 621.32,592.92C620.80,592.40 617.25,591.31 613.44,590.50C609.62,589.70 604.77,589.03 602.66,589.02C599.75,589.00 597.85,588.17 594.82,585.58C592.62,583.69 587.82,580.59 584.16,578.67C580.50,576.76 575.57,574.63 573.22,573.93C570.86,573.23 569.29,572.35 569.72,571.97C570.15,571.59 572.61,570.76 575.19,570.14C577.77,569.51 583.42,569.00 587.73,569.00C592.05,569.00 598.16,569.67 601.31,570.49C604.46,571.31 609.39,573.17 612.27,574.61C615.15,576.05 621.38,580.11 626.11,583.62C630.85,587.13 635.02,590.00 635.38,590.00C635.74,590.00 634.95,587.86 633.62,585.25C632.30,582.64 628.52,578.02 625.24,575.00C621.95,571.98 618.19,568.72 616.88,567.77C614.59,566.11 614.65,566.10 618.83,567.51C621.21,568.31 625.79,570.37 629.00,572.08C632.22,573.80 637.24,577.52 640.17,580.35C643.10,583.19 647.31,587.62 649.53,590.21C653.07,594.34 653.51,595.41 653.18,598.96C652.89,601.99 653.15,603.00 654.23,603.00C655.02,603.00 658.38,598.16 661.70,592.25C665.02,586.34 669.34,577.67 671.31,573.00C673.28,568.33 675.62,560.45 676.52,555.50C677.77,548.64 677.94,544.89 677.25,539.72C676.60,534.93 676.65,533.05 677.42,533.29C678.01,533.48 680.20,536.98 682.27,541.07C685.09,546.62 686.32,550.63 687.14,556.94C687.97,563.25 687.95,567.52 687.07,573.81C686.42,578.44 686.09,582.43 686.34,582.67C686.58,582.91 688.92,580.39 691.54,577.06C694.15,573.73 696.51,571.00 696.78,571.00C697.04,571.00 697.04,572.91 696.77,575.25C696.50,577.59 695.29,581.59 694.08,584.14C692.63,587.20 689.81,590.44 685.79,593.64C682.44,596.31 677.96,600.68 675.85,603.34C673.73,606.00 672.00,608.61 672.00,609.15C672.00,609.68 673.40,609.30 675.11,608.31C676.83,607.31 683.11,602.58 689.07,597.78C695.04,592.98 700.16,589.44 700.45,589.92C700.74,590.39 698.35,596.11 695.14,602.64C691.94,609.16 688.75,616.22 688.06,618.32C687.37,620.42 686.98,622.31 687.20,622.53C687.42,622.75 689.23,621.49 691.23,619.72C693.23,617.95 697.33,612.30 700.35,607.16C703.37,602.02 706.44,595.50 707.17,592.66C708.25,588.45 708.50,550.45 708.50,387.00C708.50,227.46 708.23,183.95 707.17,174.00C706.45,167.12 705.17,157.90 704.35,153.50C703.52,149.10 702.00,143.57 700.97,141.22C699.57,138.04 698.14,136.54 695.43,135.41C693.43,134.57 691.56,134.11 691.29,134.38C691.02,134.65 691.29,138.61 691.89,143.19C692.49,147.76 693.49,162.53 694.11,176.00C694.73,189.47 694.99,207.25 694.68,215.50C694.38,223.75 693.61,232.30 692.97,234.50C692.34,236.70 690.67,241.10 689.26,244.28C687.85,247.46 686.21,249.90 685.61,249.70C685.02,249.51 684.22,247.51 683.83,245.27C683.45,243.02 682.22,239.39 681.10,237.19C679.97,234.99 677.98,232.34 676.66,231.31C675.35,230.27 672.40,228.58 670.11,227.55C665.95,225.67 665.95,225.67 666.60,217.06C667.01,211.72 666.78,205.59 666.01,200.97C665.33,196.86 663.65,189.90 662.28,185.50C660.91,181.10 657.73,173.49 655.21,168.59C652.69,163.68 648.07,156.26 644.95,152.09C641.83,147.91 635.28,140.62 630.39,135.88C625.50,131.14 617.56,124.70 612.75,121.57C607.94,118.44 601.19,114.60 597.75,113.05C594.31,111.50 587.83,109.07 583.34,107.66C578.85,106.25 572.10,104.60 568.34,103.99C564.58,103.39 560.38,102.65 559.00,102.34C556.82,101.85 557.46,101.31 564.00,98.14C569.18,95.63 571.90,93.66 572.79,91.78C573.87,89.50 573.84,88.58 572.59,86.17C571.62,84.30 569.34,82.53 566.11,81.14C563.36,79.96 558.11,78.36 554.44,77.59C550.77,76.82 547.07,75.50 546.21,74.64C544.81,73.23 544.83,72.71 546.44,69.13C547.42,66.95 549.78,63.67 551.67,61.84C555.12,58.50 555.12,58.50 574.81,58.52C585.64,58.53 595.39,58.90 596.48,59.33C598.13,59.98 597.46,60.53 592.55,62.52C589.29,63.85 585.72,65.84 584.60,66.95C583.33,68.22 582.94,69.31 583.54,69.87C584.09,70.39 586.87,70.42 590.00,69.96C593.02,69.51 597.08,69.15 599.00,69.15C602.50,69.16 602.50,69.16 599.43,70.51C597.74,71.25 595.81,72.52 595.13,73.34C594.35,74.28 594.27,75.05 594.89,75.43C595.44,75.77 602.32,76.70 610.19,77.49C618.06,78.29 625.96,79.23 627.75,79.59C631.00,80.25 631.00,80.25 631.00,75.69C631.00,73.18 631.46,69.91 632.03,68.43C632.83,66.32 632.72,65.34 631.51,64.01C630.66,63.07 625.48,60.55 620.00,58.40C614.52,56.26 610.03,54.16 610.02,53.75C610.01,53.34 611.82,53.00 614.05,53.00C616.28,53.00 621.34,53.72 625.30,54.61C629.26,55.49 636.10,57.91 640.50,59.98C644.90,62.05 652.22,66.43 656.78,69.72C661.33,73.00 669.04,79.34 673.90,83.80C678.98,88.46 685.78,96.13 689.87,101.81C693.78,107.26 698.54,115.13 700.45,119.31C702.35,123.49 704.72,127.75 705.70,128.79C706.69,129.82 708.17,131.94 709.00,133.48C709.83,135.03 710.95,136.35 711.50,136.40C712.05,136.46 712.64,135.02 712.82,133.21C712.99,131.39 712.15,126.89 710.95,123.21C709.76,119.52 706.85,112.83 704.50,108.35C702.15,103.87 697.76,96.89 694.74,92.85C691.73,88.81 686.10,82.27 682.25,78.33C678.39,74.39 672.36,69.05 668.86,66.47C665.36,63.89 658.90,59.97 654.50,57.75C650.10,55.53 643.40,52.66 639.62,51.37C635.84,50.09 627.74,48.24 621.62,47.27C611.23,45.62 595.72,45.50 386.50,45.50C162.50,45.50 162.50,45.50 152.80,48.23C147.47,49.74 138.24,52.87 132.30,55.20C125.56,57.85 117.70,61.97 111.39,66.18C104.44,70.82 98.19,76.17 91.39,83.31C85.45,89.55 79.61,96.90 76.77,101.71C74.16,106.12 70.49,113.72 68.61,118.61C66.73,123.50 64.27,132.22 63.13,138.00C62.00,143.78 60.61,152.10 60.05,156.50C59.50,160.90 58.49,172.60 57.82,182.50C56.93,195.62 56.59,252.05 56.55,390.60C56.51,546.22 56.74,580.98 57.81,582.28C58.54,583.15 61.88,584.79 65.24,585.92C68.60,587.06 71.57,587.76 71.85,587.48C72.12,587.21 71.57,583.05 70.61,578.24C69.65,573.43 68.60,563.25 68.28,555.62C67.79,543.96 67.92,541.81 69.10,542.19C69.87,542.45 72.30,545.90 74.50,549.86C77.02,554.39 79.56,557.60 81.36,558.53C82.94,559.34 84.40,560.00 84.61,560.00C84.83,560.00 84.99,558.09 84.97,555.75C84.95,553.41 84.28,547.00 83.49,541.50C82.69,536.00 82.03,527.56 82.02,522.75C82.01,517.94 82.38,514.00 82.85,514.00C83.31,514.00 84.50,514.89 85.48,515.98C86.94,517.59 87.04,518.24 86.03,519.47C85.34,520.30 85.04,521.66 85.36,522.49C85.68,523.32 86.85,524.00 87.97,524.00C89.09,524.00 90.00,524.40 90.00,524.88C90.00,525.37 90.95,526.02 92.11,526.32C94.03,526.82 94.16,526.58 93.52,523.69C93.14,521.93 92.60,515.55 92.34,509.50C92.07,503.45 91.67,492.53 91.45,485.24C91.11,474.06 91.33,471.24 92.89,467.28C94.35,463.57 94.85,462.99 95.31,464.54C95.63,465.62 96.20,468.22 96.57,470.33C96.95,472.44 97.90,474.41 98.69,474.71C99.48,475.01 101.22,474.76 102.56,474.15C104.83,473.12 105.00,472.51 105.00,465.63C105.00,459.93 105.42,457.70 106.84,455.95C108.68,453.68 108.68,453.68 109.77,459.59C110.38,462.84 111.16,467.98 111.50,471.00C111.85,474.02 113.21,483.93 114.54,493.02C115.86,502.11 117.78,512.23 118.80,515.52C120.66,521.50 120.66,521.50 121.76,514.50C122.37,510.65 123.34,504.26 123.93,500.31C124.52,496.35 125.00,491.54 125.00,489.62C125.00,487.69 124.55,485.84 124.00,485.50C123.45,485.16 123.00,483.45 122.99,481.69C122.99,479.94 124.00,476.15 125.24,473.27C126.48,470.39 127.86,468.03 128.29,468.02C128.73,468.01 130.42,470.81 132.04,474.25C133.67,477.69 135.00,481.01 135.00,481.64C135.00,482.26 133.17,485.51 130.94,488.85C128.71,492.20 126.46,496.41 125.94,498.21C125.42,500.01 125.00,502.73 125.00,504.24C125.00,505.76 125.43,507.00 125.96,507.00C126.50,507.00 127.51,505.99 128.21,504.75C128.92,503.51 130.45,500.05 131.62,497.06C133.60,491.97 133.80,491.77 134.90,493.82C135.78,495.46 135.80,497.04 134.96,500.16C134.34,502.44 132.07,508.15 129.90,512.84C127.73,517.53 125.29,524.24 124.48,527.75C123.67,531.25 123.00,536.52 123.00,539.44C123.00,543.07 123.50,545.17 124.58,546.07C125.69,546.99 126.67,547.09 127.83,546.39C128.75,545.84 130.72,542.94 132.21,539.95C133.70,536.95 134.72,533.83 134.47,533.00C134.23,532.17 136.19,525.36 138.84,517.86C141.48,510.36 145.86,500.26 148.57,495.41C151.28,490.56 155.76,484.28 158.52,481.46C161.27,478.65 165.45,475.07 167.79,473.52C170.13,471.97 172.24,470.91 172.49,471.15C172.73,471.40 171.80,474.95 170.41,479.05C169.02,483.15 165.82,493.48 163.29,502.00C160.77,510.52 157.66,521.77 156.40,527.00C155.13,532.23 153.60,539.88 153.00,544.00C152.41,548.12 151.67,552.74 151.38,554.25C151.05,555.91 151.28,557.00 151.95,557.00C152.55,557.00 154.71,553.51 156.75,549.25C160.45,541.50 160.45,541.50 160.78,546.32C161.07,550.45 160.33,552.80 155.56,562.96C152.50,569.47 150.00,575.11 150.00,575.49C150.00,575.87 155.51,570.58 162.25,563.74C173.18,552.66 175.23,551.03 181.26,548.66C184.98,547.20 188.76,546.00 189.66,546.00C190.65,546.00 189.75,547.13 187.40,548.83C185.26,550.38 181.91,553.20 179.96,555.08C178.01,556.96 174.76,560.56 172.73,563.07C170.71,565.58 167.93,570.10 166.55,573.10C165.07,576.33 163.79,581.45 163.40,585.66C162.74,592.76 162.74,592.76 166.41,593.97C169.13,594.87 170.43,594.89 171.43,594.06C172.17,593.44 173.80,590.22 175.04,586.89C176.29,583.56 179.08,578.09 181.25,574.73C184.16,570.24 185.41,569.00 185.98,570.06C186.41,570.85 187.09,575.54 187.49,580.47C187.89,585.40 188.60,590.44 189.06,591.66C189.86,593.76 190.29,593.50 196.70,587.12C200.94,582.91 205.92,579.16 209.91,577.18C213.44,575.43 216.92,574.00 217.66,574.00C218.43,574.00 217.13,576.53 214.57,580.01C212.07,583.41 208.37,590.56 206.07,596.44C203.83,602.16 202.00,608.05 202.00,609.52C202.00,611.23 203.23,613.43 205.40,615.60C207.27,617.47 209.60,619.00 210.57,619.00C211.55,619.00 216.20,618.27 220.92,617.38C227.59,616.12 232.29,615.92 242.00,616.47C248.88,616.86 270.93,617.48 291.00,617.86C311.07,618.24 327.91,618.22 328.41,617.81C328.91,617.41 327.27,612.87 324.70,607.55C321.92,601.80 318.21,596.00 315.35,592.94C312.73,590.15 309.23,585.77 307.55,583.21C304.89,579.16 303.58,578.23 297.32,575.92C293.37,574.46 287.87,571.61 285.11,569.58C282.34,567.55 277.21,562.65 273.71,558.69C270.21,554.74 264.05,547.00 260.02,541.50C255.99,536.00 248.68,526.68 243.79,520.78C236.54,512.06 234.30,509.98 231.69,509.58C229.94,509.32 224.89,508.90 220.48,508.66C216.07,508.42 210.79,507.52 208.73,506.66C205.93,505.49 205.00,504.52 205.00,502.76C205.00,501.48 208.41,495.49 212.58,489.46C216.75,483.43 221.65,475.57 223.47,472.00C225.28,468.43 227.75,462.35 228.95,458.50C230.14,454.65 231.49,449.56 231.95,447.18C232.71,443.17 232.59,442.80 230.32,441.93C228.97,441.42 226.16,441.00 224.06,441.00C221.96,441.00 218.83,440.72 217.09,440.37C215.35,440.02 213.50,438.94 212.98,437.96C212.32,436.73 212.55,434.77 213.72,431.63C214.65,429.12 215.19,426.86 214.93,426.60C214.67,426.34 208.88,426.52 202.06,427.00C194.99,427.49 185.02,427.49 178.87,426.99C172.93,426.51 167.16,425.62 166.04,425.02C164.62,424.26 164.00,422.93 164.00,420.64C164.00,418.83 165.12,414.06 166.49,410.04C167.85,406.02 170.73,399.47 172.88,395.49C176.78,388.25 176.78,388.25 166.34,387.79C158.52,387.44 155.49,386.92 154.28,385.71C152.85,384.28 152.81,383.41 153.95,378.35C154.65,375.20 156.67,369.19 158.44,365.00C160.20,360.82 163.68,354.27 166.17,350.45C168.65,346.63 172.82,341.14 175.43,338.25C180.19,333.00 180.19,333.00 176.76,333.00C174.87,333.00 168.86,333.67 163.41,334.49C157.96,335.32 149.53,335.99 144.68,335.99C139.84,336.00 135.00,335.53 133.93,334.96C132.33,334.11 132.00,332.83 132.00,327.60C132.00,324.11 132.66,317.49 133.47,312.88C134.28,308.27 136.06,301.20 137.44,297.17C138.81,293.14 140.85,288.36 141.97,286.55C143.09,284.74 144.00,282.53 144.00,281.63C144.00,280.31 142.89,280.00 138.07,280.00C134.02,280.00 131.65,279.50 130.57,278.43C129.71,277.56 129.00,275.75 129.00,274.39C129.00,273.03 129.70,268.54 130.55,264.41C131.40,260.29 133.44,253.39 135.09,249.08C136.73,244.77 139.67,238.61 141.61,235.38C143.55,232.14 146.23,228.35 147.57,226.95C148.91,225.54 150.00,223.88 150.00,223.26C150.00,222.64 149.21,221.91 148.25,221.63C147.29,221.35 144.59,220.62 142.25,220.02C139.91,219.42 138.00,218.60 138.00,218.21C138.01,217.82 138.87,216.08 139.93,214.35C140.99,212.61 144.86,208.01 148.53,204.11C152.21,200.22 158.22,194.80 161.91,192.07C165.59,189.34 172.85,185.07 178.05,182.57C183.25,180.08 190.10,177.38 193.28,176.57C196.46,175.76 203.66,174.59 209.27,173.97C214.89,173.35 222.64,173.13 226.49,173.47C230.35,173.82 236.76,174.56 240.75,175.12C244.74,175.68 252.06,177.45 257.01,179.06C261.97,180.66 268.38,183.16 271.26,184.61C274.14,186.05 279.44,189.18 283.03,191.55C286.63,193.92 292.10,198.52 295.20,201.77C298.30,205.02 302.64,210.47 304.84,213.87C307.04,217.27 310.25,223.45 311.97,227.59C313.70,231.73 316.42,240.16 318.02,246.31C319.62,252.47 322.27,263.81 323.91,271.52C325.55,279.23 328.05,289.22 329.47,293.73C330.90,298.23 333.19,303.26 334.56,304.89C335.93,306.52 338.96,308.56 341.28,309.42C343.60,310.27 348.62,311.45 352.44,312.04C356.25,312.62 361.87,312.80 364.94,312.44C368.00,312.08 373.99,310.64 378.25,309.26C382.51,307.87 387.06,305.75 388.36,304.54C389.66,303.34 391.76,299.68 393.03,296.43C394.91,291.61 395.35,288.54 395.37,280.00C395.40,271.44 394.79,267.01 392.10,256.00C390.29,248.57 387.70,237.32 386.35,231.00C385.01,224.68 383.53,213.88 383.07,207.00C382.61,200.12 382.60,190.18 383.06,184.89C383.52,179.60 384.60,172.24 385.46,168.54C386.32,164.83 388.20,158.80 389.64,155.15C391.08,151.49 394.78,144.76 397.88,140.19C400.97,135.61 404.10,131.03 404.82,130.01C406.05,128.29 405.81,128.10 401.82,127.61C399.45,127.32 395.42,126.81 392.89,126.50C390.35,126.18 385.87,124.48 382.92,122.71C379.51,120.66 376.57,117.87 374.80,115.00C373.28,112.53 371.61,108.26 371.10,105.52C370.56,102.62 370.54,99.86 371.06,98.89C371.70,97.70 373.98,97.05 379.29,96.55C383.33,96.17 390.21,94.61 394.57,93.07C398.93,91.53 406.55,88.47 411.50,86.26C420.50,82.24 420.50,82.24 421.00,74.53C421.43,67.97 421.85,66.53 423.86,64.91C425.58,63.52 427.80,63.00 432.02,63.00C435.21,63.00 440.52,63.84 443.82,64.87C449.82,66.73 449.82,66.73 453.26,62.87C456.29,59.48 457.26,59.00 461.11,59.02C463.52,59.03 467.42,59.92 469.77,60.98C472.11,62.04 476.50,65.25 479.52,68.11C484.70,73.00 485.12,73.21 486.83,71.65C487.84,70.74 489.65,70.00 490.85,70.00C492.06,70.00 496.08,71.53 499.77,73.41C503.47,75.28 507.94,78.32 509.70,80.16C511.46,82.00 513.60,85.17 514.45,87.22C515.37,89.43 516.00,93.88 515.99,98.22C515.98,103.87 515.42,106.70 513.49,110.86C510.99,116.22 510.99,116.22 519.81,124.86C525.51,130.44 529.58,135.43 531.31,138.95C532.79,141.94 534.00,146.05 534.00,148.07C534.00,150.13 533.34,152.31 532.50,153.00C531.67,153.68 531.00,154.59 531.00,155.00C531.00,155.42 534.82,157.90 539.48,160.52C544.62,163.40 550.06,167.49 553.30,170.89C556.24,173.97 559.85,178.56 561.32,181.09C562.79,183.61 564.74,188.69 565.65,192.38C566.77,196.91 566.98,199.42 566.30,200.10C565.61,200.79 564.00,200.45 561.33,199.06C558.37,197.51 555.28,196.96 548.94,196.83C541.64,196.69 539.82,197.02 535.44,199.26C532.65,200.68 529.77,202.57 529.04,203.45C528.19,204.48 527.77,207.33 527.88,211.28C528.01,216.03 528.84,219.15 531.40,224.50C533.24,228.35 536.98,234.43 539.71,238.00C542.45,241.57 549.82,251.31 556.10,259.64C562.38,267.96 570.17,279.44 573.41,285.14C578.07,293.33 581.74,298.03 590.90,307.58C598.36,315.34 604.22,322.54 607.32,327.72C609.98,332.16 613.29,338.63 614.69,342.10C616.10,345.56 618.13,352.70 619.23,357.95C620.79,365.47 621.10,369.84 620.68,378.50C620.39,384.55 619.41,393.10 618.49,397.50C617.58,401.90 615.93,408.20 614.83,411.50C613.73,414.80 611.03,421.07 608.83,425.44C606.63,429.81 603.59,435.21 602.08,437.44C600.56,439.67 596.02,447.35 592.00,454.50C587.97,461.65 581.79,471.41 578.28,476.19C574.77,480.97 567.82,488.75 562.85,493.48C557.87,498.22 549.70,505.26 544.67,509.14C539.65,513.02 529.23,520.45 521.52,525.63C513.81,530.82 504.00,537.48 499.72,540.44C495.44,543.39 488.34,547.68 483.94,549.97C477.98,553.07 474.91,555.44 471.88,559.27C469.65,562.10 466.23,567.58 464.28,571.45C462.33,575.33 459.45,580.38 457.87,582.68C456.29,584.98 455.00,588.13 454.99,589.68C454.99,591.23 457.31,597.13 460.15,602.79C463.00,608.45 466.75,614.33 468.49,615.86C471.06,618.12 473.53,618.95 481.67,620.30C487.18,621.22 501.55,622.42 513.60,622.98C525.64,623.55 537.23,624.24 539.34,624.53C541.45,624.82 544.83,625.89 546.84,626.92C548.86,627.95 554.10,629.33 558.50,629.99C562.90,630.65 571.09,632.29 576.70,633.63C582.31,634.97 591.08,636.68 596.20,637.43C601.31,638.18 607.64,638.83 610.25,638.89zM158.25,630.65C163.61,630.63 168.00,630.28 168.00,629.88C168.00,629.47 165.53,628.83 162.50,628.46C158.81,628.00 157.00,627.31 157.00,626.38C157.00,625.62 157.39,625.00 157.86,625.00C158.34,625.00 159.91,623.82 161.35,622.38C162.79,620.94 163.75,619.41 163.49,618.98C163.23,618.56 163.72,617.94 164.59,617.60C165.45,617.27 167.22,617.00 168.51,617.00C169.95,617.00 171.10,616.26 171.47,615.09C171.80,614.04 172.72,612.94 173.51,612.63C174.30,612.33 177.48,613.41 180.58,615.04C183.67,616.67 187.51,618.00 189.10,618.00C190.81,618.00 192.00,617.47 192.00,616.70C192.00,615.99 189.64,613.00 186.75,610.07C183.58,606.84 179.12,603.64 175.50,601.98C172.20,600.48 167.12,598.74 164.20,598.12C161.29,597.50 156.11,597.01 152.70,597.02C149.29,597.03 143.45,597.68 139.73,598.47C136.01,599.26 130.26,601.34 126.97,603.10C123.67,604.85 118.80,608.43 116.14,611.05C113.49,613.66 110.34,617.87 109.16,620.39C107.97,622.91 107.00,625.21 107.00,625.48C107.00,625.76 107.79,625.84 108.75,625.67C109.71,625.49 112.15,624.64 114.16,623.77C116.17,622.89 120.67,619.96 124.16,617.25C127.65,614.54 131.27,612.05 132.22,611.71C133.16,611.37 134.20,611.52 134.52,612.04C134.85,612.56 133.90,614.12 132.41,615.50C130.92,616.87 128.91,618.00 127.93,618.00C126.95,618.00 124.75,619.18 123.02,620.63C120.99,622.35 120.00,624.00 120.20,625.37C120.44,627.07 121.49,627.64 125.50,628.28C128.25,628.71 134.55,629.43 139.50,629.88C144.45,630.33 152.89,630.67 158.25,630.65zM341.78,630.81C344.86,630.55 345.56,630.08 345.84,628.06C346.06,626.55 345.50,625.11 344.40,624.31C343.42,623.59 341.16,623.00 339.37,623.00C337.58,623.00 335.93,623.34 335.70,623.75C335.47,624.16 335.90,625.99 336.67,627.81C337.93,630.82 338.39,631.09 341.78,630.81zM91.04,625.00C91.51,625.00 91.46,623.76 90.93,622.25C90.40,620.74 87.66,616.43 84.85,612.67C82.03,608.92 76.17,602.29 71.82,597.94C65.97,592.09 62.03,589.13 56.71,586.58C52.74,584.69 48.15,582.85 46.50,582.51C43.72,581.93 43.91,582.24 49.00,586.64C52.02,589.26 57.09,594.04 60.25,597.27C63.41,600.50 66.00,603.61 66.00,604.19C66.00,604.76 65.10,605.00 64.00,604.71C62.90,604.42 62.00,604.38 62.00,604.61C62.00,604.84 64.36,606.54 67.25,608.40C70.14,610.26 76.48,614.75 81.34,618.39C86.20,622.03 90.57,625.00 91.04,625.00zM437.33,622.86C441.14,623.00 441.16,622.99 440.48,619.75C440.10,617.96 438.10,612.85 436.02,608.38C433.95,603.92 430.41,597.55 428.16,594.24C424.97,589.54 422.63,587.40 417.52,584.55C413.92,582.53 410.10,579.95 409.03,578.80C407.96,577.65 406.16,574.75 405.04,572.36C403.15,568.34 402.69,568.00 399.24,568.02C397.19,568.04 393.48,568.51 391.02,569.08C388.56,569.65 385.09,571.22 383.32,572.57C381.55,573.92 376.03,580.08 371.05,586.26C366.08,592.44 361.03,599.48 359.84,601.90C358.39,604.85 357.65,608.31 357.59,612.40C357.50,618.50 357.50,618.50 372.00,619.28C379.98,619.71 397.07,620.67 410.00,621.40C422.93,622.13 435.22,622.79 437.33,622.86zM449.95,623.00C451.01,623.00 453.02,622.56 454.43,622.02C455.85,621.49 457.00,620.62 457.00,620.10C457.00,619.57 456.22,618.36 455.27,617.41C454.31,616.46 453.48,615.19 453.42,614.59C453.36,613.99 453.24,612.94 453.15,612.25C453.07,611.56 451.71,611.00 450.12,611.00C448.54,611.00 446.71,611.64 446.07,612.42C445.25,613.41 445.19,614.40 445.88,615.67C446.43,616.68 447.14,618.74 447.46,620.25C447.85,622.09 448.67,623.00 449.95,623.00zM341.13,619.86C342.02,619.94 343.30,619.35 343.96,618.55C344.62,617.75 345.01,616.30 344.82,615.33C344.60,614.18 342.78,613.08 339.63,612.19C336.75,611.38 334.41,611.19 333.88,611.72C333.34,612.26 333.42,613.89 334.06,615.75C334.74,617.68 335.99,619.04 337.33,619.30C338.52,619.54 340.23,619.79 341.13,619.86zM633.25,611.95C633.66,611.98 634.00,611.55 634.00,611.01C634.00,610.46 632.12,608.65 629.81,606.98C627.51,605.31 623.35,603.31 620.56,602.54C617.78,601.77 613.53,600.83 611.12,600.46C608.40,600.04 606.97,600.15 607.34,600.75C607.67,601.28 610.61,602.68 613.88,603.88C617.15,605.07 622.67,607.36 626.16,608.98C629.65,610.59 632.84,611.93 633.25,611.95zM446.88,607.49C448.31,607.13 449.80,606.33 450.18,605.70C450.57,605.08 450.41,603.99 449.82,603.28C449.23,602.58 447.77,602.00 446.57,602.00C445.37,602.00 443.57,602.59 442.58,603.32C440.86,604.57 440.86,604.72 442.53,606.39C443.75,607.61 445.08,607.95 446.88,607.49zM334.97,605.93C335.81,605.89 337.30,605.54 338.28,605.16C339.85,604.53 339.68,604.08 336.78,601.28C334.98,599.53 331.81,597.40 329.75,596.54C327.42,595.56 326.00,595.37 326.00,596.04C326.00,596.62 326.67,598.40 327.49,599.99C328.32,601.58 329.99,603.58 331.22,604.44C332.44,605.30 334.13,605.97 334.97,605.93zM440.08,598.00C441.05,598.00 442.52,597.74 443.36,597.42C444.19,597.10 444.63,596.20 444.33,595.42C444.01,594.58 442.40,594.00 440.39,594.00C438.23,594.00 437.00,594.48 437.00,595.33C437.00,596.07 437.30,596.97 437.67,597.33C438.03,597.70 439.12,598.00 440.08,598.00zM657.30,587.91C655.32,590.33 655.32,590.33 654.72,587.37C654.40,585.74 652.64,582.34 650.82,579.82C648.99,577.29 645.35,572.59 642.73,569.36C640.02,566.03 637.32,561.37 636.48,558.57C635.67,555.86 635.00,550.43 635.00,546.50C635.00,542.58 635.49,536.70 636.10,533.43C636.70,530.17 638.60,524.12 640.32,520.00C642.04,515.88 644.42,510.76 645.62,508.64C647.79,504.78 647.79,504.78 648.51,509.08C648.91,511.45 650.72,516.79 652.53,520.94C654.34,525.10 657.43,531.71 659.40,535.64C661.37,539.57 663.70,545.87 664.59,549.64C665.63,554.10 666.05,559.31 665.79,564.55C665.47,570.87 664.73,573.97 662.34,579.05C660.66,582.60 658.40,586.59 657.30,587.91zM109.34,567.61C110.53,567.29 112.06,567.02 112.75,567.01C113.58,567.00 114.00,565.35 114.00,562.11C114.00,558.66 113.55,557.04 112.49,556.63C111.34,556.19 111.04,554.69 111.24,550.31C111.50,544.57 111.50,544.57 106.17,543.78C102.76,543.28 100.23,543.38 99.17,544.06C97.79,544.94 97.95,545.05 100.11,544.73C102.18,544.41 102.63,544.69 102.28,546.03C102.02,547.03 102.88,548.55 104.40,549.74C105.80,550.85 107.38,552.88 107.90,554.25C108.72,556.39 108.51,556.90 106.40,557.86C104.37,558.79 104.07,559.45 104.62,561.74C104.98,563.26 105.70,565.33 106.22,566.34C106.88,567.62 107.84,568.01 109.34,567.61zM340.51,567.00C340.80,567.00 341.92,565.54 343.01,563.75C344.10,561.96 344.99,561.06 345.00,561.75C345.00,562.44 345.81,563.00 346.81,563.00C347.80,563.00 349.98,561.99 351.66,560.75C353.34,559.51 358.35,555.21 362.80,551.18C367.96,546.51 370.69,543.35 370.34,542.43C370.03,541.65 369.10,541.00 368.27,541.00C367.06,541.00 367.00,540.71 367.96,539.54C368.63,538.74 368.86,537.58 368.48,536.97C368.01,536.20 364.44,535.99 357.28,536.32C347.44,536.76 346.23,537.05 338.49,540.89C333.80,543.21 328.87,546.52 327.11,548.53C325.40,550.48 324.00,552.50 324.00,553.03C324.00,553.57 324.91,554.00 326.03,554.00C327.15,554.00 330.24,552.90 332.90,551.55C337.73,549.10 337.73,549.10 334.39,555.30C332.55,558.71 331.04,562.06 331.02,562.75C331.01,563.44 331.80,564.00 332.78,564.00C333.76,564.00 335.56,563.30 336.78,562.44C338.00,561.59 339.05,561.25 339.12,561.69C339.18,562.14 339.34,562.95 339.46,563.50C339.59,564.05 339.76,565.06 339.85,565.75C339.93,566.44 340.23,567.00 340.51,567.00zM133.17,565.00C133.62,565.00 134.00,564.46 134.00,563.80C134.00,563.14 135.40,561.15 137.11,559.38C138.82,557.62 139.92,555.68 139.55,555.09C139.18,554.49 137.90,554.01 136.69,554.02C135.49,554.02 133.97,554.37 133.32,554.78C132.68,555.19 131.96,557.43 131.73,559.75C131.49,562.07 131.53,564.20 131.82,564.48C132.10,564.77 132.71,565.00 133.17,565.00zM300.02,555.27C300.38,554.85 302.79,551.41 305.38,547.63C307.98,543.85 309.91,540.57 309.67,540.34C309.44,540.11 307.69,539.66 305.79,539.35C302.43,538.81 302.27,538.93 300.17,543.83C298.98,546.60 298.00,550.17 298.00,551.77C298.00,553.36 298.31,554.97 298.68,555.35C299.06,555.73 299.66,555.69 300.02,555.27zM140.43,548.69C141.01,548.50 141.94,546.80 142.49,544.91C143.05,543.02 144.28,540.38 145.24,539.03C146.20,537.68 146.65,536.26 146.24,535.86C145.83,535.46 144.18,534.99 142.57,534.82C140.16,534.56 139.50,534.95 138.92,537.00C138.52,538.38 138.15,541.34 138.10,543.58C138.04,545.83 138.31,547.98 138.69,548.35C139.07,548.73 139.85,548.88 140.43,548.69zM643.62,545.00C643.83,545.00 643.96,540.16 643.90,534.25C643.84,527.32 643.52,524.39 643.00,526.00C642.56,527.38 642.16,531.20 642.11,534.50C642.07,537.80 642.30,541.51 642.63,542.75C642.96,543.99 643.41,545.00 643.62,545.00zM294.87,544.00C295.87,544.00 297.51,543.10 298.51,541.99C299.50,540.89 300.04,539.71 299.70,539.37C299.36,539.03 297.27,538.42 295.07,538.01C292.86,537.61 290.84,537.50 290.57,537.77C290.30,538.03 290.75,539.55 291.57,541.13C292.38,542.71 293.87,544.00 294.87,544.00zM107.75,539.82C110.50,539.50 110.50,539.50 110.50,531.00C110.50,522.50 110.50,522.50 107.77,522.19C105.90,521.97 104.25,522.66 102.53,524.38C101.14,525.77 100.27,527.54 100.58,528.35C100.89,529.15 102.01,530.03 103.07,530.31C104.63,530.72 105.00,531.71 105.00,535.47C105.00,539.97 105.10,540.12 107.75,539.82zM92.04,535.48C92.57,535.15 93.00,533.98 93.00,532.88C93.00,531.77 92.53,529.99 91.96,528.92C91.12,527.36 90.53,527.18 88.96,528.02C87.88,528.60 87.00,529.73 87.00,530.54C87.00,531.34 87.92,532.92 89.04,534.04C90.16,535.16 91.51,535.80 92.04,535.48zM320.04,529.90C324.18,529.95 332.96,529.29 339.54,528.43C346.12,527.57 353.44,526.61 355.81,526.30C358.22,525.98 359.75,525.35 359.27,524.87C358.79,524.39 353.48,523.74 347.45,523.42C341.43,523.10 335.82,522.60 335.00,522.32C334.18,522.03 340.55,519.83 349.16,517.42C357.78,515.02 368.36,511.65 372.66,509.94C376.97,508.24 381.93,506.17 383.67,505.34C385.42,504.52 387.11,503.15 387.43,502.31C387.91,501.06 387.42,500.88 384.76,501.34C382.97,501.65 379.25,502.18 376.50,502.52C372.62,503.00 371.83,502.89 373.00,501.99C374.18,501.08 373.65,500.96 370.50,501.39C368.30,501.69 363.84,502.24 360.59,502.62C356.22,503.13 354.88,503.01 355.41,502.15C355.80,501.51 355.52,500.75 354.77,500.47C354.03,500.18 349.05,501.08 343.70,502.47C338.35,503.86 333.26,505.00 332.38,505.00C331.18,505.00 331.37,504.52 333.14,503.07C335.28,501.33 335.34,501.08 333.73,500.46C332.76,500.08 327.26,499.95 321.51,500.16C314.87,500.41 310.59,501.01 309.78,501.82C308.76,502.84 308.80,503.27 310.01,504.04C311.33,504.89 311.33,505.11 310.00,505.98C309.18,506.53 307.07,506.98 305.32,506.98C303.56,506.99 300.87,507.48 299.34,508.06C297.80,508.65 292.93,509.76 288.52,510.54C284.11,511.32 279.04,511.97 277.25,511.98C275.46,511.99 274.00,512.44 274.00,512.97C274.00,513.51 276.36,514.63 279.25,515.47C282.14,516.30 289.63,517.66 295.89,518.49C302.16,519.31 309.59,520.65 312.39,521.46C315.20,522.27 319.29,523.22 321.47,523.56C324.69,524.06 325.11,524.36 323.72,525.14C322.78,525.66 318.17,526.37 313.49,526.70C308.80,527.03 305.18,527.51 305.43,527.77C305.69,528.02 307.38,528.58 309.20,529.01C311.01,529.44 315.89,529.84 320.04,529.90zM143.48,528.37C144.27,528.07 146.28,525.69 147.95,523.07C149.63,520.46 151.00,518.08 151.00,517.78C151.00,517.48 150.20,517.02 149.21,516.77C148.23,516.51 146.50,516.64 145.37,517.06C144.04,517.55 142.86,519.42 142.05,522.33C141.35,524.81 141.07,527.31 141.42,527.88C141.78,528.45 142.70,528.67 143.48,528.37zM105.34,518.80C109.50,518.50 109.50,518.50 109.36,513.19C109.28,510.27 108.96,507.63 108.65,507.32C108.35,507.01 106.93,507.05 105.50,507.41C104.08,507.77 102.78,508.61 102.61,509.28C102.44,509.95 101.80,512.03 101.18,513.90C100.57,515.76 100.32,517.70 100.62,518.20C100.93,518.70 103.05,518.97 105.34,518.80zM149.25,512.77C149.94,512.56 151.22,510.98 152.09,509.26C152.96,507.54 154.43,505.00 155.34,503.61C156.25,502.21 157.01,500.27 157.03,499.29C157.05,498.30 157.72,496.63 158.53,495.56C159.34,494.49 160.00,492.77 160.00,491.74C160.00,490.50 159.41,489.97 158.28,490.18C157.34,490.37 155.92,491.86 155.12,493.51C154.33,495.15 153.29,497.18 152.83,498.00C152.36,498.82 151.08,501.45 149.99,503.83C148.89,506.22 148.00,509.29 148.00,510.67C148.00,512.21 148.48,513.02 149.25,512.77zM682.89,508.00C682.29,508.00 680.53,506.64 678.98,504.98C677.43,503.32 674.98,498.87 673.53,495.08C670.91,488.21 670.91,488.21 673.97,482.35C675.65,479.13 677.47,473.80 678.01,470.50C678.55,467.20 678.99,462.31 678.99,459.63C679.00,455.48 679.22,454.93 680.45,455.96C681.25,456.63 683.02,459.06 684.37,461.37C685.73,463.68 687.72,468.26 688.81,471.54C689.89,474.82 691.08,480.09 691.46,483.25C691.85,486.54 691.66,491.31 691.02,494.42C690.40,497.41 688.56,501.69 686.94,503.93C685.32,506.17 683.50,508.00 682.89,508.00zM103.00,504.00C104.43,504.00 106.14,503.46 106.80,502.80C107.46,502.14 108.00,500.44 108.00,499.02C108.00,497.60 107.09,495.67 105.99,494.72C104.88,493.78 103.56,493.00 103.06,493.00C102.56,493.00 101.21,494.19 100.07,495.63C98.93,497.08 98.00,499.02 98.00,499.93C98.00,500.85 98.54,502.14 99.20,502.80C99.86,503.46 101.57,504.00 103.00,504.00zM219.39,497.00C221.25,497.00 226.99,496.13 232.14,495.06C237.29,493.99 245.55,491.93 250.50,490.49C255.45,489.05 263.94,486.08 269.36,483.90C274.79,481.71 280.94,479.05 283.04,477.98C285.15,476.91 287.15,475.57 287.49,475.01C287.84,474.46 287.73,474.00 287.26,474.00C286.78,474.00 281.69,475.59 275.95,477.53C270.20,479.47 262.12,481.92 258.00,482.96C253.88,484.01 244.88,485.85 238.00,487.06C231.12,488.26 224.38,489.67 223.00,490.19C221.62,490.71 219.49,492.08 218.25,493.24C217.01,494.40 216.00,495.72 216.00,496.17C216.00,496.63 217.53,497.00 219.39,497.00zM102.43,488.80C105.42,488.51 105.51,488.36 105.80,482.75C106.00,478.92 105.72,477.00 104.95,477.00C104.32,477.00 102.50,477.77 100.90,478.72C99.30,479.66 97.76,481.18 97.47,482.10C97.18,483.02 97.48,484.97 98.15,486.43C99.14,488.60 99.94,489.04 102.43,488.80zM352.00,477.51C354.48,477.18 361.09,474.72 366.70,472.04C372.30,469.36 381.75,463.87 387.68,459.84C393.61,455.80 402.75,448.38 407.98,443.34C413.22,438.31 417.25,433.93 416.95,433.62C416.64,433.31 413.49,435.02 409.95,437.41C406.40,439.80 396.52,447.00 388.00,453.42C377.97,460.97 368.09,467.38 360.00,471.60C348.65,477.51 347.92,478.05 352.00,477.51zM250.75,476.00C251.16,476.00 255.78,474.85 261.00,473.45C266.23,472.04 274.10,469.73 278.50,468.31C282.90,466.89 290.32,464.16 295.00,462.24C299.68,460.32 307.77,456.61 313.00,453.99C318.23,451.37 323.62,448.26 325.00,447.08C327.50,444.94 327.50,444.94 317.25,445.22C307.20,445.49 307.00,445.46 307.00,443.25C307.00,441.72 306.40,441.00 305.13,441.00C304.11,441.00 295.81,445.84 286.70,451.75C277.58,457.66 265.60,465.09 260.06,468.26C254.53,471.43 250.00,474.47 250.00,475.01C250.00,475.56 250.34,476.00 250.75,476.00zM311.29,471.08C312.71,470.54 316.27,468.90 319.19,467.43C322.11,465.96 328.55,462.27 333.50,459.22C338.45,456.18 344.84,451.96 347.70,449.85C350.55,447.74 354.07,444.84 355.51,443.40C356.94,441.96 357.90,440.56 357.63,440.29C357.35,440.02 354.92,440.53 352.21,441.43C349.50,442.33 345.30,444.32 342.88,445.86C340.45,447.40 332.40,453.16 324.98,458.66C317.57,464.15 310.87,469.42 310.10,470.36C308.82,471.92 308.92,471.98 311.29,471.08zM239.02,466.99C240.68,466.52 246.19,464.22 251.27,461.88C256.35,459.55 262.74,456.32 265.47,454.71C268.21,453.10 272.44,450.42 274.87,448.74C277.31,447.07 282.38,443.04 286.15,439.80C289.92,436.56 293.00,433.55 293.00,433.11C293.00,432.68 291.85,431.80 290.45,431.16C289.05,430.52 286.56,430.00 284.91,430.00C282.80,430.00 278.58,432.30 270.71,437.74C264.54,441.99 254.21,450.13 247.75,455.82C241.29,461.50 236.00,466.54 236.00,467.01C236.00,467.48 237.36,467.47 239.02,466.99zM351.26,465.00C352.05,465.00 356.70,462.49 361.60,459.41C366.49,456.34 373.54,451.37 377.25,448.37C380.96,445.37 384.00,442.48 384.00,441.96C384.00,441.43 383.12,441.00 382.04,441.00C380.96,441.00 377.63,441.91 374.65,443.03C371.17,444.33 366.87,447.22 362.66,451.07C359.05,454.38 354.69,458.87 352.97,461.04C350.88,463.68 350.31,465.00 351.26,465.00zM497.55,445.00C497.85,445.00 499.50,444.28 501.21,443.39C502.92,442.51 506.55,439.70 509.29,437.14C512.02,434.59 516.23,429.94 518.64,426.81C521.05,423.69 524.18,418.82 525.59,416.00C527.01,413.18 529.49,406.98 531.09,402.23C533.65,394.66 533.83,393.40 532.56,392.13C531.38,390.95 530.81,390.91 529.59,391.93C528.29,393.00 527.91,392.52 526.92,388.59C526.28,386.07 525.25,384.00 524.63,384.01C524.01,384.01 522.38,387.02 521.00,390.68C519.62,394.35 517.99,397.51 517.37,397.72C516.75,397.92 515.97,397.02 515.64,395.72C515.32,394.42 511.92,389.73 508.09,385.31C504.25,380.88 500.42,376.99 499.57,376.66C498.39,376.21 497.74,377.13 496.90,380.50C495.78,384.92 495.78,384.92 490.66,382.33C487.85,380.90 483.48,378.00 480.96,375.87C478.44,373.74 475.84,372.00 475.19,372.00C474.53,372.00 474.00,373.14 474.00,374.54C474.00,375.94 473.29,380.55 472.41,384.79C471.54,389.03 469.42,396.06 467.71,400.41C465.99,404.77 460.94,414.44 456.49,421.91C452.04,429.39 448.10,436.27 447.74,437.22C447.18,438.68 447.55,438.84 450.29,438.32C452.06,437.99 454.72,437.10 456.20,436.36C457.69,435.61 459.96,435.00 461.25,435.00C462.54,435.00 464.13,434.47 464.78,433.82C465.43,433.17 466.23,432.90 466.56,433.22C466.88,433.55 465.54,435.28 463.57,437.07C461.61,438.86 460.00,440.66 460.00,441.07C460.00,441.48 462.28,441.22 465.06,440.49C467.84,439.75 470.80,438.58 471.63,437.89C472.80,436.92 473.32,436.91 473.89,437.82C474.39,438.63 475.54,438.04 477.56,435.91C479.18,434.21 484.04,430.14 488.37,426.86C492.70,423.59 496.48,421.15 496.77,421.43C497.06,421.72 495.17,425.61 492.58,430.08C489.98,434.54 488.05,438.38 488.27,438.60C488.50,438.83 490.66,437.61 493.09,435.89C495.52,434.17 500.97,429.36 505.22,425.19C509.47,421.02 513.20,417.86 513.51,418.18C513.82,418.49 513.08,420.49 511.85,422.62C510.62,424.76 507.56,429.13 505.06,432.34C502.55,435.56 499.71,439.38 498.76,440.84C497.80,442.30 497.01,443.84 497.01,444.25C497.00,444.66 497.25,445.00 497.55,445.00zM257.75,434.55C259.26,434.19 263.31,432.59 266.75,431.00C270.19,429.41 273.00,427.65 273.00,427.09C273.00,426.53 272.06,425.57 270.91,424.95C269.76,424.33 267.70,424.11 266.35,424.45C264.99,424.79 261.88,426.91 259.44,429.16C257.00,431.41 255.00,433.70 255.00,434.24C255.00,434.80 256.17,434.94 257.75,434.55zM529.50,432.00C529.77,432.00 531.86,430.32 534.14,428.26C536.42,426.20 540.69,421.26 543.63,417.28C546.65,413.20 549.38,408.26 549.90,405.95C550.82,401.85 550.82,401.85 548.70,403.68C547.53,404.68 545.76,406.40 544.75,407.50C542.98,409.45 542.95,409.29 543.58,401.75C544.04,396.32 543.90,394.00 543.12,394.00C542.50,394.00 542.00,394.12 542.00,394.26C542.00,394.41 541.07,397.00 539.94,400.01C538.81,403.03 535.88,411.07 533.44,417.87C531.00,424.67 529.00,430.64 529.00,431.12C529.00,431.60 529.22,432.00 529.50,432.00zM322.94,431.00C325.36,431.00 331.10,430.30 335.70,429.43C340.30,428.57 347.67,426.56 352.09,424.97C356.52,423.37 365.50,418.89 372.05,415.01C378.61,411.13 388.73,405.44 394.54,402.36C400.35,399.29 405.32,396.99 405.59,397.25C405.85,397.52 404.04,400.22 401.57,403.26C399.09,406.29 393.34,411.70 388.78,415.27C384.23,418.85 379.41,422.95 378.08,424.38C376.75,425.82 375.89,427.23 376.18,427.51C376.47,427.80 379.58,427.30 383.10,426.40C386.62,425.50 391.62,423.69 394.22,422.38C396.81,421.07 401.26,417.93 404.10,415.41C407.75,412.17 409.49,411.18 410.03,412.05C410.60,412.97 411.57,412.73 413.86,411.10C415.54,409.90 417.84,407.63 418.96,406.06C420.08,404.48 421.00,402.91 421.00,402.58C421.00,402.24 419.83,402.26 418.39,402.62C415.91,403.24 415.85,403.15 417.02,400.89C417.69,399.57 422.86,393.77 428.49,388.00C434.13,382.23 439.73,375.55 440.93,373.17C442.13,370.80 442.98,368.21 442.81,367.44C442.60,366.46 439.97,367.84 434.36,371.85C429.88,375.06 422.46,379.53 417.86,381.79C413.26,384.05 407.35,386.43 404.71,387.08C402.08,387.73 399.68,388.01 399.37,387.71C399.07,387.40 399.87,385.75 401.14,384.02C402.41,382.30 405.72,379.51 408.48,377.82C411.24,376.12 417.24,371.83 421.80,368.27C426.76,364.41 431.54,359.66 433.66,356.46C435.61,353.52 437.04,350.62 436.84,350.01C436.62,349.37 433.81,350.62 430.18,352.96C426.72,355.20 421.33,358.37 418.20,360.02C415.06,361.68 410.02,364.36 407.00,365.99C403.98,367.62 400.68,368.97 399.68,368.98C398.01,369.00 398.04,368.76 400.05,365.93C401.26,364.24 406.84,358.90 412.47,354.07C418.10,349.24 424.12,344.45 425.85,343.43C427.58,342.41 429.00,341.02 429.00,340.35C429.00,339.68 427.76,338.30 426.25,337.27C424.74,336.24 419.55,333.67 414.72,331.56C409.89,329.44 405.70,327.33 405.41,326.86C405.12,326.39 407.40,326.00 410.48,326.00C413.80,326.00 419.21,327.04 423.78,328.56C428.03,329.96 433.53,332.59 436.02,334.40C438.51,336.21 442.23,340.14 444.30,343.15C446.37,346.15 449.21,351.92 450.62,355.96C452.02,359.99 453.74,367.62 454.44,372.90C455.53,381.17 455.83,382.08 456.60,379.50C457.09,377.85 457.46,372.90 457.41,368.50C457.36,364.10 456.57,357.95 455.66,354.82C454.74,351.70 451.75,345.80 449.01,341.71C446.17,337.47 441.78,332.53 438.77,330.21C435.87,327.98 431.21,325.01 428.42,323.61C425.63,322.21 418.88,319.94 413.42,318.56C407.96,317.18 399.67,315.77 395.00,315.42C387.62,314.87 384.79,315.19 373.50,317.86C366.35,319.55 354.68,321.64 347.56,322.52C340.45,323.39 331.45,324.77 327.56,325.57C323.68,326.38 317.57,328.01 314.00,329.18C310.43,330.36 305.34,332.66 302.70,334.28C300.06,335.90 298.10,337.43 298.34,337.67C298.58,337.91 301.64,337.38 305.14,336.49C308.64,335.60 314.41,333.98 317.97,332.90C321.52,331.82 327.41,330.51 331.04,329.99C334.68,329.48 343.69,328.99 351.08,328.90C358.46,328.82 368.10,328.13 372.50,327.38C376.90,326.62 381.51,326.00 382.75,326.00C383.99,326.00 385.00,326.43 385.00,326.96C385.00,327.49 382.13,328.81 378.62,329.89C375.11,330.98 368.02,332.14 362.87,332.48C357.72,332.83 348.55,333.80 342.50,334.65C336.45,335.50 327.23,337.28 322.00,338.60C316.77,339.93 308.45,343.02 303.50,345.48C298.55,347.94 290.23,353.15 285.00,357.06C279.77,360.96 273.08,366.49 270.13,369.33C267.17,372.17 261.19,378.97 256.83,384.42C252.48,389.88 246.49,398.66 243.54,403.92C240.58,409.19 237.46,415.90 236.61,418.82C235.47,422.75 235.38,424.05 236.28,423.78C236.95,423.58 239.75,419.97 242.50,415.77C245.25,411.56 249.71,404.61 252.42,400.31C255.13,396.01 261.20,388.66 265.92,383.97C270.64,379.27 278.75,372.59 283.95,369.13C289.14,365.66 296.96,361.03 301.32,358.84C305.68,356.65 312.66,353.98 316.84,352.91C321.02,351.84 327.76,350.75 331.82,350.48C335.88,350.21 339.72,349.70 340.35,349.35C340.98,348.99 339.93,350.38 338.00,352.42C335.75,354.81 330.02,358.36 321.98,362.32C315.10,365.72 305.92,370.05 301.59,371.94C297.12,373.89 290.00,378.26 285.11,382.07C280.37,385.76 274.88,390.51 272.90,392.64C270.92,394.76 268.00,398.26 266.41,400.42C263.52,404.32 263.52,404.33 266.00,403.00C267.38,402.27 271.29,399.96 274.69,397.88C278.10,395.80 283.22,392.91 286.08,391.46C288.93,390.02 296.38,387.07 302.62,384.92C308.87,382.76 314.52,381.00 315.18,381.00C315.84,381.00 315.05,382.39 313.44,384.08C311.82,385.78 303.95,390.49 295.94,394.55C285.59,399.80 279.85,403.40 276.13,406.97C273.24,409.74 271.14,412.41 271.44,412.91C271.77,413.44 274.41,413.26 277.75,412.47C280.91,411.73 285.25,410.39 287.38,409.49C291.09,407.94 291.23,407.94 290.52,409.68C290.11,410.68 289.55,412.29 289.27,413.25C288.99,414.21 289.22,415.00 289.78,415.00C290.34,415.00 293.47,412.99 296.74,410.54C300.01,408.08 303.90,405.61 305.40,405.04C306.90,404.47 308.52,404.00 308.99,404.00C309.47,404.00 308.73,406.02 307.35,408.50C305.96,410.97 304.98,413.39 305.17,413.88C305.35,414.36 311.97,411.64 319.88,407.83C327.79,404.02 334.92,401.04 335.72,401.20C336.91,401.44 336.78,402.02 335.10,404.16C333.94,405.62 333.00,407.09 333.00,407.43C333.00,407.77 334.26,407.40 335.80,406.61C337.33,405.81 343.46,401.75 349.42,397.58C355.37,393.41 360.65,390.00 361.14,390.00C361.63,390.00 361.74,391.20 361.37,392.67C360.70,395.34 360.70,395.34 365.10,392.25C367.76,390.39 372.86,388.30 378.00,386.98C382.68,385.78 387.62,384.56 389.00,384.27C391.30,383.79 391.19,384.08 387.50,387.93C385.30,390.23 379.45,394.73 374.50,397.94C369.55,401.15 357.98,407.68 348.79,412.45C339.60,417.22 329.04,423.35 325.31,426.06C318.54,431.00 318.54,431.00 322.94,431.00zM196.01,407.43C197.12,406.32 202.96,397.79 208.98,388.46C218.18,374.21 219.63,371.45 218.03,371.19C216.99,371.02 212.65,372.28 208.38,373.98C204.12,375.69 197.84,379.08 194.42,381.52C191.00,383.96 186.52,388.25 184.46,391.06C182.40,393.87 180.08,397.98 179.32,400.21C178.55,402.43 178.17,404.51 178.48,404.82C178.79,405.13 181.17,403.36 183.77,400.88C186.37,398.41 189.36,395.74 190.41,394.94C192.23,393.58 192.26,393.63 191.05,395.89C190.35,397.20 189.40,399.59 188.94,401.20C188.11,404.11 188.11,404.11 191.59,401.06C193.50,399.38 195.25,398.00 195.46,398.00C195.68,398.00 195.44,399.46 194.93,401.24C194.42,403.03 194.00,405.60 194.00,406.97C194.00,409.44 194.00,409.44 196.01,407.43zM322.59,389.00C322.26,389.00 322.00,388.51 322.00,387.92C322.00,387.33 324.59,384.26 327.75,381.12C330.91,377.97 335.95,374.18 338.95,372.70C341.94,371.21 345.43,370.00 346.70,370.00C347.96,370.00 349.00,370.35 349.00,370.77C349.00,371.20 347.65,373.18 346.01,375.18C344.09,377.50 339.43,380.65 333.09,383.90C327.64,386.71 322.91,389.00 322.59,389.00zM351.84,382.00C350.83,382.00 350.00,381.36 350.00,380.58C350.00,379.81 351.98,377.43 354.40,375.30C356.82,373.16 361.29,370.20 364.34,368.71C367.38,367.22 370.59,366.00 371.45,366.00C372.77,366.00 372.63,366.79 370.59,370.81C369.25,373.46 367.51,376.16 366.72,376.82C365.93,377.47 362.67,378.91 359.48,380.01C356.30,381.10 352.86,382.00 351.84,382.00zM227.25,380.00C227.94,380.00 230.30,379.14 232.50,378.08C234.70,377.02 239.65,374.93 243.50,373.42C247.35,371.92 253.94,368.68 258.14,366.22C262.35,363.76 267.07,360.72 268.64,359.46C270.21,358.21 271.20,356.88 270.83,356.51C270.47,356.14 265.97,356.33 260.83,356.94C255.70,357.55 249.10,358.74 246.17,359.58C242.68,360.58 239.27,362.55 236.26,365.30C233.74,367.61 230.40,371.50 228.84,373.95C227.28,376.39 226.00,378.75 226.00,379.20C226.00,379.64 226.56,380.00 227.25,380.00zM374.85,379.00C374.38,379.00 374.00,378.48 374.00,377.85C374.00,377.21 375.88,374.96 378.17,372.84C380.47,370.72 384.63,367.90 387.42,366.58C390.21,365.25 392.70,364.37 392.95,364.62C393.21,364.87 392.58,366.62 391.57,368.49C390.56,370.37 388.11,372.98 386.12,374.29C384.13,375.59 380.97,377.19 379.10,377.83C377.23,378.47 375.32,379.00 374.85,379.00zM168.53,371.00C169.37,371.00 174.32,367.15 179.53,362.45C184.74,357.74 189.00,354.12 189.00,354.39C189.00,354.66 188.12,356.37 187.05,358.19C185.98,360.01 184.79,363.48 184.40,365.90C183.70,370.29 183.70,370.29 186.60,369.57C188.19,369.17 190.31,368.11 191.30,367.22C192.29,366.33 194.69,362.58 196.63,358.89C198.57,355.20 201.66,350.42 203.51,348.26C205.55,345.87 209.29,343.25 213.01,341.57C216.39,340.06 219.32,338.99 219.53,339.19C219.73,339.40 218.62,341.58 217.05,344.03C215.49,346.49 213.91,349.48 213.56,350.68C212.99,352.58 214.88,351.93 228.71,345.48C237.39,341.43 246.56,337.66 249.08,337.09C251.60,336.53 259.16,335.39 265.89,334.55C273.11,333.66 280.04,332.18 282.81,330.95C287.29,328.96 287.41,328.80 285.51,327.40C284.42,326.59 280.60,325.03 277.01,323.92C273.43,322.81 265.77,321.56 260.00,321.14C254.22,320.72 245.45,320.72 240.50,321.14C235.52,321.57 227.78,323.11 223.18,324.60C218.36,326.15 211.20,329.59 206.18,332.76C201.40,335.76 195.88,338.81 193.90,339.51C191.92,340.22 188.49,341.73 186.27,342.86C184.06,343.99 180.39,347.03 178.12,349.60C175.85,352.18 172.42,357.43 170.50,361.28C168.57,365.12 167.00,368.88 167.00,369.63C167.00,370.39 167.69,371.00 168.53,371.00zM520.60,365.53C521.33,364.53 523.28,359.61 524.93,354.61C526.58,349.60 528.45,342.38 529.10,338.57C529.80,334.40 530.01,328.24 529.61,323.09C529.16,317.28 527.80,311.17 525.36,304.02C523.39,298.23 520.97,291.93 519.98,290.00C519.00,288.07 517.04,285.17 515.64,283.54C514.23,281.92 512.78,280.89 512.41,281.25C512.05,281.62 513.36,287.10 515.33,293.44C517.31,299.77 519.42,308.68 520.02,313.23C520.63,317.78 520.97,323.98 520.79,327.00C520.61,330.03 520.16,331.82 519.80,331.00C519.44,330.18 517.27,324.32 514.99,318.00C512.71,311.68 510.24,302.81 509.51,298.30C508.65,293.04 507.04,287.97 505.02,284.19C503.29,280.95 499.39,275.19 496.35,271.40C493.31,267.60 489.77,262.48 488.49,260.00C487.20,257.52 484.73,253.93 483.00,252.00C480.88,249.64 480.06,249.15 480.49,250.50C480.85,251.60 481.97,255.65 482.99,259.50C484.00,263.35 485.12,268.75 485.46,271.50C486.07,276.50 486.07,276.50 482.99,271.00C481.29,267.98 479.54,265.14 479.10,264.70C478.65,264.25 479.08,268.08 480.04,273.19C481.01,278.31 481.65,282.66 481.47,282.85C481.29,283.04 480.25,281.45 479.17,279.33C478.08,277.20 474.93,268.82 472.17,260.71C469.41,252.60 465.57,243.13 463.63,239.66C461.69,236.20 458.13,230.68 455.71,227.39C453.29,224.11 448.46,218.97 444.97,215.96C441.48,212.96 436.71,208.56 434.38,206.19C431.99,203.76 429.46,199.87 428.57,197.26C427.71,194.72 427.01,190.81 427.02,188.57C427.03,186.33 427.86,182.70 428.86,180.49C429.87,178.29 432.35,175.02 434.38,173.24C436.41,171.46 438.56,170.00 439.15,170.00C439.82,170.00 439.99,171.06 439.61,172.75C439.27,174.26 438.72,176.89 438.39,178.59C437.88,181.24 438.42,182.41 442.14,186.66C444.54,189.39 447.54,192.43 448.82,193.41C450.09,194.39 451.37,194.97 451.65,194.68C451.93,194.40 451.63,193.18 450.98,191.97C450.34,190.76 450.19,189.95 450.65,190.17C451.12,190.40 454.43,192.02 458.00,193.79C461.57,195.55 465.85,196.98 467.50,196.97C470.40,196.94 470.43,196.89 468.50,195.40C467.40,194.55 466.00,193.56 465.38,193.18C464.77,192.81 463.97,191.55 463.60,190.38C463.07,188.65 463.45,188.15 465.72,187.64C467.25,187.30 470.21,185.53 472.29,183.72C476.09,180.43 476.09,180.43 470.79,180.40C467.40,180.38 464.06,179.62 461.50,178.27C459.30,177.11 455.88,174.44 453.91,172.33C451.93,170.23 449.32,167.05 448.11,165.28C446.19,162.48 446.04,161.56 446.95,158.19C447.52,156.06 448.90,153.49 450.01,152.49C451.13,151.48 454.39,149.81 457.27,148.77C460.17,147.72 465.03,146.89 468.17,146.91C471.28,146.93 475.56,147.58 477.67,148.34C479.77,149.11 482.29,150.06 483.25,150.47C484.21,150.88 485.00,150.80 485.00,150.29C485.00,149.79 483.76,148.19 482.25,146.74C480.74,145.29 477.25,143.11 474.50,141.89C470.87,140.28 467.43,139.65 461.92,139.59C455.13,139.51 453.98,139.78 450.74,142.25C448.76,143.76 444.98,147.74 442.35,151.09C439.71,154.44 435.82,158.07 433.68,159.16C431.55,160.25 429.59,160.92 429.33,160.66C429.07,160.40 429.56,158.82 430.43,157.14C431.29,155.47 432.00,153.63 432.00,153.05C432.00,152.47 431.30,152.00 430.45,152.00C429.60,152.00 427.53,152.71 425.86,153.57C424.18,154.44 422.58,154.91 422.29,154.63C422.01,154.34 422.88,152.69 424.24,150.95C425.60,149.22 430.04,145.13 434.11,141.86C438.17,138.60 445.16,134.10 449.64,131.85C457.02,128.16 458.48,127.78 465.14,127.83C469.19,127.86 474.07,128.38 476.00,128.99C477.93,129.60 481.97,130.34 485.00,130.62C488.02,130.91 491.96,131.84 493.76,132.69C495.55,133.54 498.04,135.42 499.29,136.87C500.53,138.32 502.34,140.13 503.30,140.89C504.83,142.11 504.97,142.08 504.40,140.60C504.05,139.68 504.15,138.99 504.63,139.08C505.11,139.17 506.01,139.18 506.63,139.12C507.26,139.05 508.03,138.00 508.35,136.77C508.92,134.60 509.02,134.63 512.47,137.97C514.41,139.85 516.00,140.82 516.00,140.12C516.00,139.43 514.85,136.89 513.44,134.49C512.04,132.09 509.14,128.55 507.00,126.62C504.87,124.69 499.38,121.32 494.81,119.13C490.24,116.93 483.69,114.20 480.25,113.06C476.82,111.91 470.52,110.49 466.25,109.89C461.99,109.29 455.62,109.09 452.10,109.44C448.58,109.80 443.28,110.94 440.32,111.98C437.36,113.02 431.91,116.02 428.22,118.65C424.52,121.28 419.31,125.47 416.62,127.96C413.94,130.46 409.78,135.26 407.38,138.62C404.97,141.99 401.85,147.28 400.43,150.37C399.01,153.47 398.00,156.76 398.18,157.69C398.41,158.90 400.31,157.35 404.86,152.24C408.35,148.31 412.32,144.37 413.68,143.48C416.11,141.88 416.13,141.89 414.93,144.18C414.25,145.46 410.56,151.40 406.73,157.39C402.89,163.38 398.47,171.11 396.90,174.56C395.33,178.02 393.78,182.80 393.45,185.18C392.85,189.50 392.85,189.50 395.85,186.01C397.50,184.08 399.10,182.76 399.40,183.07C399.71,183.38 399.29,187.81 398.46,192.91C397.36,199.72 397.23,203.17 397.97,205.85C398.53,207.86 398.99,212.99 398.99,217.25C399.00,221.51 399.38,225.00 399.85,225.00C400.31,225.00 401.50,223.21 402.49,221.03C403.47,218.84 404.67,217.29 405.14,217.59C405.61,217.88 406.01,223.38 406.03,229.81C406.06,239.69 406.27,241.23 407.38,239.77C408.11,238.81 408.92,238.26 409.20,238.53C409.47,238.81 409.48,242.40 409.22,246.52C408.94,250.83 409.13,254.00 409.67,254.00C410.19,254.00 411.57,252.09 412.74,249.75C414.88,245.50 414.88,245.50 415.14,251.00C415.28,254.03 415.48,257.85 415.57,259.50C415.67,261.15 415.81,263.62 415.89,265.00C415.98,266.59 416.31,267.06 416.80,266.29C417.23,265.61 418.54,265.33 419.78,265.65C421.56,266.12 421.87,266.73 421.40,268.86C421.08,270.31 420.19,274.12 419.41,277.33C418.64,280.54 418.00,283.43 418.00,283.77C418.00,284.10 419.41,283.05 421.12,281.44C424.25,278.50 424.25,278.50 423.57,283.50C423.20,286.25 421.97,291.34 420.84,294.81C419.72,298.29 419.08,301.42 419.44,301.77C419.79,302.13 421.83,300.41 423.97,297.96C426.10,295.51 429.93,289.57 432.48,284.78C435.03,279.98 437.60,275.74 438.21,275.37C438.98,274.90 439.10,276.00 438.60,279.10C438.22,281.52 436.16,287.32 434.03,292.00C431.90,296.68 430.06,302.30 429.94,304.50C429.82,306.70 429.78,309.34 429.86,310.37C429.98,311.96 430.24,312.05 431.58,310.93C432.45,310.21 434.47,307.04 436.06,303.88C437.65,300.73 439.35,297.90 439.83,297.60C440.32,297.31 440.96,301.32 441.28,306.54C441.64,312.69 442.48,317.32 443.67,319.76C444.68,321.81 445.89,323.50 446.37,323.50C446.86,323.50 448.03,320.48 448.99,316.79C449.96,313.10 452.47,306.57 454.58,302.29C458.43,294.50 458.43,294.50 459.05,308.00C459.40,315.43 460.24,323.52 460.93,326.00C461.62,328.48 463.54,333.06 465.20,336.19C466.86,339.33 469.04,342.63 470.05,343.55C471.82,345.15 471.88,344.82 471.69,334.35C471.59,328.38 471.90,322.88 472.39,322.11C473.10,321.01 473.53,321.19 474.49,322.99C475.64,325.13 475.75,325.02 476.53,320.88C477.30,316.82 477.41,317.19 478.05,326.00C478.44,331.35 479.51,337.25 480.49,339.50C481.44,341.70 483.11,344.74 484.18,346.25C485.26,347.76 486.44,349.00 486.82,349.00C487.19,349.00 487.35,344.84 487.17,339.75C486.94,333.29 487.44,327.64 488.82,321.00C489.91,315.77 491.32,310.15 491.97,308.50C492.91,306.08 493.31,305.80 494.01,307.05C494.48,307.90 495.38,312.62 496.00,317.55C496.63,322.47 498.01,329.79 499.08,333.81C500.15,337.83 502.11,343.23 503.44,345.81C504.77,348.39 508.88,354.29 512.57,358.92C518.71,366.63 519.39,367.19 520.60,365.53zM543.25,355.15C544.07,354.33 544.46,351.06 544.39,345.70C544.31,339.91 543.65,335.85 542.12,331.89C540.93,328.80 539.07,325.47 537.98,324.48C536.23,322.90 536.00,322.88 536.00,324.31C536.00,325.19 537.35,331.96 539.00,339.34C540.65,346.72 542.00,353.58 542.00,354.58C542.00,356.04 542.25,356.15 543.25,355.15zM352.78,354.69C351.15,355.02 350.00,354.82 350.00,354.20C350.00,353.62 351.06,352.31 352.36,351.29C353.66,350.26 356.56,348.60 358.80,347.59C361.82,346.23 363.86,345.95 366.69,346.51C370.50,347.27 370.50,347.27 363.03,350.70C358.92,352.59 354.31,354.39 352.78,354.69zM404.11,342.00C401.91,342.00 399.84,341.55 399.50,341.00C399.16,340.45 400.14,339.51 401.69,338.91C403.24,338.31 405.91,337.59 407.64,337.30C409.36,337.01 411.58,337.22 412.56,337.77C414.15,338.67 414.01,338.94 411.22,340.39C409.50,341.27 406.30,342.00 404.11,342.00zM564.34,338.16C565.00,335.22 564.97,331.94 564.23,327.96C563.63,324.73 562.37,320.48 561.44,318.51C560.50,316.54 558.86,314.46 557.78,313.88C556.71,313.31 555.64,313.03 555.41,313.26C555.18,313.49 556.32,318.14 557.95,323.59C559.58,329.04 561.46,335.52 562.13,338.00C563.35,342.50 563.35,342.50 564.34,338.16zM154.08,319.96C155.22,319.35 157.44,315.97 159.02,312.46C160.60,308.94 164.20,302.45 167.03,298.04C170.21,293.10 175.60,286.80 181.09,281.63C185.99,277.02 190.00,272.96 190.00,272.62C190.00,272.28 188.54,272.01 186.75,272.02C184.96,272.03 179.54,272.92 174.69,273.99C169.85,275.06 163.61,277.18 160.83,278.69C158.05,280.20 154.26,283.29 152.41,285.54C150.57,287.80 147.84,292.29 146.36,295.52C144.88,298.76 143.47,303.51 143.22,306.07C142.92,309.20 143.19,311.00 144.05,311.53C144.86,312.03 146.09,311.41 147.41,309.82C148.56,308.45 150.46,306.01 151.63,304.41C152.81,302.81 154.10,301.82 154.51,302.21C154.93,302.61 154.53,305.85 153.63,309.42C152.73,312.99 152.00,317.07 152.00,318.49C152.00,320.79 152.22,320.95 154.08,319.96zM300.32,315.27C300.76,315.01 300.33,313.92 299.35,312.83C298.37,311.75 294.60,308.89 290.96,306.47C287.32,304.06 282.13,301.08 279.42,299.85C275.41,298.03 272.65,297.61 264.50,297.58C255.88,297.55 253.88,297.87 250.03,299.90C247.57,301.20 244.31,303.19 242.78,304.32C241.25,305.45 240.00,306.69 240.00,307.07C240.00,307.46 242.59,308.09 245.75,308.47C248.91,308.86 254.20,309.80 257.50,310.55C260.80,311.31 271.15,312.64 280.50,313.51C289.85,314.37 297.95,315.23 298.50,315.41C299.05,315.58 299.87,315.52 300.32,315.27zM506.79,305.00C506.53,305.00 505.58,304.20 504.69,303.21C503.80,302.23 502.17,299.38 501.06,296.87C499.95,294.36 497.93,288.16 496.57,283.08C494.79,276.40 494.49,274.16 495.49,274.99C496.26,275.63 498.95,280.30 501.47,285.38C504.27,291.02 506.29,296.63 506.66,299.81C507.00,302.66 507.06,305.00 506.79,305.00zM179.94,304.00C180.46,304.00 182.95,302.21 185.48,300.02C188.01,297.83 192.13,294.84 194.63,293.37C197.89,291.46 199.40,291.03 199.92,291.87C200.43,292.70 201.22,292.41 202.57,290.90C203.63,289.72 208.21,285.84 212.75,282.29C217.29,278.74 221.00,275.47 221.00,275.03C221.00,274.59 219.62,274.02 217.93,273.78C216.24,273.53 212.30,273.71 209.18,274.19C206.06,274.66 200.70,276.41 197.28,278.07C193.41,279.95 189.73,282.71 187.58,285.34C185.67,287.67 182.96,292.04 181.56,295.04C180.16,298.04 179.02,301.29 179.01,302.25C179.00,303.21 179.42,304.00 179.94,304.00zM304.40,303.92C306.25,304.00 306.25,303.93 304.50,302.00C303.50,300.90 300.30,298.87 297.37,297.48C294.45,296.10 290.02,294.69 287.53,294.35C284.79,293.97 283.00,294.12 283.00,294.72C283.00,295.26 286.04,297.07 289.75,298.75C293.46,300.42 297.85,302.25 299.50,302.82C301.15,303.38 303.36,303.88 304.40,303.92zM210.75,294.61C211.71,294.31 219.25,292.45 227.50,290.45C239.51,287.55 245.79,286.63 259.00,285.85C268.07,285.32 277.74,285.16 280.49,285.51C285.47,286.13 285.47,286.13 283.17,283.68C281.91,282.34 278.09,279.83 274.69,278.11C271.28,276.39 265.12,274.26 261.00,273.39C255.88,272.31 250.89,271.98 245.28,272.35C240.02,272.70 234.92,273.76 231.14,275.29C227.89,276.60 223.04,279.40 220.36,281.51C217.69,283.62 214.04,287.12 212.25,289.28C210.46,291.45 209.00,293.65 209.00,294.18C209.00,294.70 209.79,294.90 210.75,294.61zM280.25,270.89C280.66,270.95 281.00,270.66 281.00,270.25C280.99,269.84 280.16,268.15 279.15,266.50C278.13,264.85 275.15,261.12 272.52,258.21C269.89,255.30 265.21,250.97 262.12,248.60C259.03,246.23 254.03,242.90 251.00,241.20C247.97,239.51 242.13,237.19 238.02,236.06C233.28,234.75 227.53,234.00 222.32,234.00C216.24,234.00 211.94,234.68 205.80,236.62C201.24,238.05 195.84,240.07 193.82,241.10C191.79,242.13 189.81,243.50 189.41,244.14C188.87,245.01 190.09,245.16 194.09,244.70C199.32,244.11 199.43,244.15 197.35,245.79C196.17,246.73 193.58,248.76 191.60,250.29C189.62,251.83 188.00,253.40 188.00,253.79C188.00,254.18 196.89,254.52 207.75,254.54C223.33,254.57 228.81,254.94 233.72,256.31C237.14,257.26 240.74,258.29 241.72,258.60C243.25,259.08 243.22,258.92 241.50,257.48C240.40,256.55 235.48,253.81 230.57,251.39C225.66,248.98 221.05,247.00 220.32,247.00C219.60,247.00 219.00,246.64 219.00,246.20C219.00,245.76 221.81,245.71 225.25,246.10C228.69,246.49 234.43,248.01 238.00,249.48C241.57,250.96 247.37,254.04 250.87,256.33C254.38,258.62 262.25,262.81 268.37,265.64C274.49,268.47 279.84,270.83 280.25,270.89zM143.07,263.96C144.21,263.35 146.58,260.77 148.32,258.23C150.07,255.68 153.00,252.00 154.84,250.05C157.94,246.75 158.13,246.68 157.59,249.00C157.28,250.38 156.47,254.08 155.81,257.22C155.15,260.37 154.96,263.29 155.39,263.72C155.81,264.15 156.83,263.60 157.65,262.50C158.46,261.40 161.66,256.00 164.74,250.50C168.52,243.78 172.51,238.35 176.93,233.95C181.33,229.56 185.39,226.59 189.23,224.95C192.39,223.60 194.97,222.22 194.98,221.88C194.99,221.53 193.59,220.97 191.88,220.62C190.16,220.28 186.44,220.01 183.63,220.01C180.81,220.02 175.61,220.71 172.09,221.54C168.56,222.37 163.46,224.26 160.76,225.73C158.06,227.20 154.59,230.00 153.06,231.95C151.52,233.90 148.90,238.20 147.24,241.50C145.58,244.80 143.50,249.94 142.61,252.93C141.73,255.92 141.00,259.87 141.00,261.72C141.00,264.80 141.17,264.98 143.07,263.96zM296.98,264.00C297.39,264.00 297.58,259.78 297.41,254.63C297.16,247.28 296.55,244.04 294.58,239.58C293.20,236.46 291.64,232.35 291.11,230.45C290.49,228.21 290.51,227.00 291.15,227.00C291.69,227.00 293.68,228.18 295.57,229.62C298.65,231.97 299.00,232.05 299.00,230.37C299.00,229.34 297.66,225.68 296.03,222.22C294.40,218.77 291.75,214.05 290.15,211.72C288.55,209.40 285.07,205.33 282.41,202.67C279.75,200.02 274.64,196.14 271.04,194.06C267.44,191.98 261.57,189.12 258.00,187.71C254.43,186.29 246.93,184.21 241.34,183.07C234.17,181.61 227.41,181.00 218.34,181.01C209.11,181.01 203.25,181.56 197.50,182.94C193.10,184.00 187.25,185.86 184.50,187.08C181.75,188.29 177.47,190.64 175.00,192.30C172.53,193.96 168.23,197.23 165.45,199.57C162.68,201.90 159.12,205.66 157.55,207.92C155.99,210.19 154.90,212.23 155.14,212.48C155.39,212.72 159.02,211.83 163.23,210.49C167.81,209.04 178.39,207.16 189.68,205.80C200.03,204.55 212.35,203.60 217.06,203.69C221.97,203.78 230.33,204.91 236.68,206.34C242.76,207.71 250.83,210.07 254.62,211.57C258.40,213.08 263.10,215.32 265.06,216.55C267.02,217.78 270.78,221.19 273.42,224.12C276.54,227.59 280.84,234.69 285.71,244.42C289.83,252.65 293.88,260.42 294.72,261.69C295.55,262.96 296.57,264.00 296.98,264.00zM83.74,251.50C83.49,254.50 83.49,254.50 80.90,250.50C79.48,248.30 77.84,245.60 77.27,244.50C76.70,243.40 75.46,240.25 74.53,237.50C73.60,234.75 72.44,228.63 71.94,223.89C71.41,218.76 71.43,202.22 71.99,182.89C72.50,165.08 73.42,146.90 74.01,142.50C74.61,138.10 76.24,130.25 77.64,125.05C79.03,119.86 81.54,112.88 83.22,109.55C84.90,106.22 88.01,100.94 90.13,97.81C92.25,94.68 96.55,89.36 99.67,85.99C102.80,82.61 108.09,77.90 111.43,75.53C114.77,73.16 119.89,69.81 122.82,68.09C125.74,66.38 127.82,65.49 127.43,66.12C127.04,66.74 127.12,67.08 127.61,66.85C128.10,66.62 131.11,65.23 134.30,63.75C137.49,62.28 141.76,60.61 143.79,60.05C145.82,59.49 162.56,58.78 180.99,58.48C199.42,58.18 216.24,57.71 218.37,57.43C222.24,56.94 222.24,56.94 220.08,60.22C218.89,62.02 217.00,65.39 215.88,67.69C214.03,71.48 213.21,72.08 207.24,74.01C203.61,75.18 198.82,77.07 196.59,78.21C194.37,79.34 190.85,81.40 188.77,82.77C186.70,84.14 185.00,85.59 185.00,86.00C185.00,86.40 187.03,87.50 189.50,88.45C192.08,89.43 194.00,90.81 194.00,91.67C194.00,92.50 192.43,95.02 190.50,97.27C188.58,99.52 187.00,101.71 187.00,102.13C187.00,102.56 181.04,105.78 173.75,109.30C165.42,113.31 157.71,117.91 153.00,121.67C148.88,124.96 142.83,130.55 139.57,134.08C136.30,137.61 131.64,143.20 129.21,146.50C126.77,149.80 123.31,155.43 121.51,159.00C119.71,162.57 117.34,168.43 116.25,172.00C115.16,175.57 113.71,181.54 113.02,185.25C112.34,188.96 111.43,192.00 111.01,192.00C110.58,192.00 109.04,190.43 107.57,188.50C106.10,186.57 104.28,185.00 103.53,185.00C102.77,185.00 100.52,186.91 98.52,189.25C96.52,191.59 93.57,196.20 91.97,199.50C90.01,203.56 88.74,208.25 88.06,214.00C87.51,218.68 86.37,228.35 85.52,235.50C84.68,242.65 83.87,249.85 83.74,251.50zM456.49,251.84C456.29,252.04 454.30,248.57 452.06,244.13C449.83,239.68 448.00,235.32 448.00,234.44C448.00,233.56 448.54,233.01 449.21,233.24C449.87,233.46 451.42,235.63 452.66,238.07C453.90,240.51 455.35,244.52 455.89,246.99C456.42,249.46 456.69,251.64 456.49,251.84zM502.50,227.33C503.60,227.01 505.13,226.25 505.91,225.63C506.68,225.01 508.14,222.70 509.14,220.50C510.14,218.30 510.96,214.70 510.96,212.50C510.96,210.30 510.10,206.70 509.04,204.50C507.99,202.30 506.25,199.41 505.18,198.07C503.23,195.65 503.23,195.65 503.19,202.19C503.17,205.78 502.65,210.57 502.05,212.82C501.44,215.07 500.53,217.17 500.02,217.49C499.50,217.81 498.39,216.72 497.54,215.08C496.69,213.44 496.00,210.76 496.00,209.12C496.00,207.48 495.32,205.47 494.50,204.64C493.67,203.81 492.62,200.40 492.16,197.07C491.70,193.73 491.02,190.69 490.65,190.32C490.27,189.94 489.43,190.17 488.78,190.82C488.10,191.50 487.42,196.03 487.18,201.39C486.93,207.24 487.24,212.23 488.01,214.64C488.69,216.76 490.37,220.01 491.75,221.85C493.13,223.70 495.66,225.81 497.38,226.56C499.10,227.30 501.40,227.65 502.50,227.33zM270.84,211.89C270.65,212.40 268.70,211.91 266.50,210.79C264.30,209.68 261.65,208.03 260.60,207.13C259.56,206.23 257.20,203.16 255.35,200.30C253.51,197.44 252.00,194.86 252.00,194.57C252.00,194.28 253.24,194.51 254.75,195.08C256.26,195.65 259.17,197.26 261.22,198.67C263.27,200.08 266.34,203.42 268.06,206.09C269.78,208.77 271.03,211.38 270.84,211.89zM256.87,205.90C256.67,205.85 252.68,204.08 248.00,201.96C243.32,199.85 237.78,197.38 235.68,196.46C233.59,195.55 232.09,194.58 232.36,194.31C232.63,194.04 235.47,194.57 238.68,195.49C241.88,196.42 246.81,198.49 249.63,200.09C252.46,201.70 255.32,203.68 256.01,204.51C256.69,205.33 257.08,205.96 256.87,205.90zM520.50,193.95C526.00,193.96 531.10,193.59 531.83,193.12C532.66,192.60 528.90,191.81 522.02,191.05C515.89,190.37 509.66,190.12 508.19,190.49C505.50,191.16 505.50,191.16 508.00,192.55C509.65,193.46 513.89,193.94 520.50,193.95zM559.26,192.94C559.68,192.97 559.33,191.31 558.47,189.25C557.62,187.19 555.35,183.12 553.43,180.22C551.51,177.31 548.04,173.09 545.72,170.82C543.40,168.56 539.25,165.65 536.50,164.36C533.75,163.07 530.99,162.02 530.37,162.01C529.74,162.00 528.50,163.12 527.60,164.49C526.70,165.86 524.06,167.96 521.74,169.17C519.16,170.50 515.34,171.44 512.00,171.57C507.99,171.73 504.19,172.86 498.00,175.75C493.32,177.94 488.71,180.00 487.75,180.33C486.79,180.66 486.00,181.34 486.00,181.84C486.00,182.34 493.88,182.72 503.75,182.69C517.77,182.66 524.08,183.11 533.76,184.84C541.40,186.21 548.37,188.14 552.26,189.96C555.69,191.57 558.84,192.91 559.26,192.94zM470.50,172.95C471.60,172.96 473.18,172.50 474.00,171.92C475.17,171.10 475.00,171.01 473.23,171.51C471.99,171.86 469.41,171.63 467.50,171.00C465.28,170.27 463.04,168.38 461.27,165.75C459.75,163.50 457.94,161.47 457.25,161.24C456.56,161.02 456.00,161.31 456.00,161.88C456.00,162.46 457.45,164.59 459.23,166.61C461.01,168.63 463.82,170.88 465.48,171.61C467.14,172.33 469.40,172.93 470.50,172.95zM524.83,162.94C525.57,162.97 525.98,162.44 525.76,161.75C525.53,161.06 523.85,159.49 522.03,158.25C520.20,157.01 517.68,156.00 516.42,156.00C515.17,156.00 513.44,156.71 512.57,157.57C511.71,158.44 511.00,159.74 511.00,160.48C511.00,161.44 512.05,161.67 514.75,161.32C516.81,161.06 519.62,161.30 521.00,161.86C522.38,162.42 524.10,162.90 524.83,162.94zM460.25,157.55C462.04,157.18 464.85,156.71 466.50,156.51C468.15,156.32 470.16,156.12 470.96,156.08C472.25,156.01 472.25,155.82 470.96,154.55C470.16,153.75 467.86,152.41 465.85,151.57C462.43,150.15 462.04,150.18 459.60,152.10C458.17,153.23 457.00,155.06 457.00,156.19C457.00,157.96 457.42,158.14 460.25,157.55zM394.09,112.91C397.33,112.96 402.16,112.15 405.56,110.98C408.79,109.87 415.58,106.45 420.65,103.39C425.71,100.32 431.57,97.20 433.68,96.45C435.78,95.70 438.70,95.07 440.17,95.04C441.64,95.02 443.55,94.73 444.42,94.39C445.29,94.06 446.00,93.24 446.00,92.58C446.00,91.91 444.09,90.27 441.75,88.93C438.16,86.88 436.17,86.50 429.00,86.50C420.89,86.50 420.24,86.67 414.81,90.20C411.68,92.23 407.18,94.89 404.81,96.10C402.44,97.31 395.55,99.27 389.50,100.46C379.93,102.34 378.46,102.90 378.19,104.72C378.02,105.92 378.86,107.72 380.16,108.94C381.41,110.10 383.80,111.45 385.47,111.94C387.14,112.42 391.02,112.86 394.09,112.91zM495.83,107.00C496.43,107.00 498.02,105.09 499.36,102.75C500.71,100.41 502.11,96.64 502.47,94.36C502.84,92.07 502.62,88.31 501.98,85.92C501.33,83.52 499.36,80.16 497.51,78.31C495.47,76.27 493.21,75.00 491.62,75.00C489.63,75.00 488.89,75.63 488.38,77.75C488.01,79.26 486.87,82.19 485.84,84.25C484.80,86.31 483.80,88.00 483.60,88.00C483.40,88.00 481.27,84.96 478.87,81.25C476.48,77.54 472.54,72.36 470.12,69.75C466.63,65.98 465.06,65.00 462.52,65.00C459.74,65.00 459.06,65.54 457.50,69.01C456.50,71.21 455.13,73.48 454.44,74.05C453.54,74.80 450.61,74.08 444.11,71.54C439.13,69.60 433.67,68.00 431.99,68.00C429.74,68.00 428.71,68.59 428.09,70.25C427.56,71.65 427.69,73.62 428.43,75.47C429.41,77.91 430.70,78.78 435.56,80.27C438.83,81.27 445.59,84.17 450.58,86.71C455.57,89.25 460.15,91.03 460.75,90.65C461.35,90.28 462.11,88.63 462.42,86.99C462.74,85.34 463.27,82.62 463.59,80.93C464.16,78.03 464.29,77.95 466.02,79.51C467.02,80.42 469.28,84.73 471.03,89.08C472.79,93.44 474.74,97.07 475.36,97.16C475.99,97.24 477.62,97.44 479.00,97.59C480.38,97.75 482.72,98.17 484.21,98.54C486.72,99.17 487.12,98.81 489.67,93.61C491.18,90.52 492.78,88.00 493.23,88.00C493.68,88.00 494.51,89.21 495.07,90.68C495.66,92.24 495.81,96.20 495.41,100.18C494.95,104.84 495.09,107.00 495.83,107.00zM157.02,71.45C159.49,71.00 167.24,70.74 174.25,70.86C182.12,70.99 187.00,70.70 187.00,70.09C187.00,69.55 185.35,67.84 183.32,66.30C180.14,63.87 178.77,63.51 173.07,63.55C168.03,63.58 165.19,64.23 160.85,66.32C157.75,67.82 154.61,69.77 153.88,70.65C152.68,72.10 152.98,72.17 157.02,71.45zM233.50,36.54C239.45,36.38 247.96,35.29 254.50,33.84C261.77,32.23 264.88,31.17 263.67,30.70C262.66,30.32 254.88,30.00 246.39,30.00C234.10,30.00 230.18,30.34 227.22,31.67C223.93,33.15 223.76,33.39 225.75,33.74C226.99,33.96 228.00,34.53 228.00,35.00C228.00,35.47 226.99,36.07 225.75,36.33C224.51,36.59 228.00,36.68 233.50,36.54z"/>
</svg>